<svg xmlns="http://www.w3.org/2000/svg" viewBox="0 0 96 93.6"><defs><style>.cls-1{fill:#ff7c00}</style></defs><g id="Layer_2" data-name="Layer 2"><g id="Layer_1-2" data-name="Layer 1"><path d="M0 0h96v93.6H0z" class="cls-1"/><path fill="#261300" d="M4.8 4.8h86.4v84H4.8z"/><path d="M33.28 53.76l-3.2 12c0 .32-.16.48-.64.48h-5.92c-.32 0-.48-.16-.32-.64l11.36-39.84a12.53 12.53 0 0 0 .32-3.36c0-.32.16-.32.32-.32h8.32c.32 0 .32 0 .48.32l12.8 43.2c0 .32 0 .48-.32.48h-6.56c-.32 0-.48 0-.64-.32l-3.36-12zm11.2-6.4c-1.12-4.48-3.84-14.08-4.8-18.88-.8 4.64-3 12.64-4.64 18.88zM62.4 25.12a4.16 4.16 0 1 1 8.32 0 3.86 3.86 0 0 1-4.16 4.16c-2.4-.16-4.16-1.6-4.16-4.16zm.48 9.12a.42.42 0 0 1 .48-.48h6.24a.42.42 0 0 1 .48.48v31.52c0 .32 0 .48-.48.48h-6.24a.42.42 0 0 1-.48-.48z" class="cls-1"/></g></g></svg>