<svg xmlns="http://www.w3.org/2000/svg" width="120" height="60"><path d="M40.0115 41.75332v-23.0455h1.25099v3.62533a4.74016 4.74016 0 0 0 .40848-.51061 6.1954 6.1954 0 0 1 5.65074-3.50618c2.8509-.0851 5.16567.97015 6.5273 3.50618a11.26744 11.26744 0 0 1 .27232 10.33133c-1.26802 2.84239-4.39975 4.25507-7.75275 3.73595a6.27198 6.27198 0 0 1-5.00397-3.30194v9.16544zm1.25099-14.89277c.11063 1.12334.15318 1.9233.28083 2.70623.49359 3.08068 2.31476 4.91036 5.17417 5.24225a5.88052 5.88052 0 0 0 6.45921-3.73595 10.01645 10.01645 0 0 0-.22126-8.23783 5.76137 5.76137 0 0 0-6.06774-3.353 5.6082 5.6082 0 0 0-5.01248 4.14444 28.42391 28.42391 0 0 0-.61273 3.23386zM80.7581 29.99229a6.74004 6.74004 0 0 1-6.58685 5.9571c-5.24226.26382-7.7017-3.21683-8.09316-7.23363a11.59083 11.59083 0 0 1 1.02122-6.38261 7.123 7.123 0 0 1 7.41234-3.97424 6.80812 6.80812 0 0 1 6.04221 5.18268 34.96822 34.96822 0 0 1 .5872 3.82957H67.36313c-.2553 3.64235 1.70203 6.56984 4.47634 7.27618 3.45512.85102 6.40814-.64677 7.48042-3.93169.23829-.8425.6723-.96165 1.43822-.72336zm-13.39497-3.78702h12.31419c-.0766-3.88063-2.49348-6.68898-5.76989-6.73153-3.71042-.05957-6.38261 2.64666-6.5443 6.73153zM83.29413 30.07739h1.20844a4.84228 4.84228 0 0 0 2.8424 4.16997 7.42936 7.42936 0 0 0 6.4507-.1702 2.90196 2.90196 0 0 0 1.70202-2.8509 2.62964 2.62964 0 0 0-1.77011-2.62964c-1.32758-.49359-2.74027-.76591-4.09338-1.19993a29.99829 29.99829 0 0 1-4.11892-1.5063c-2.1786-1.06377-2.31476-5.20821.15319-6.51877a8.68887 8.68887 0 0 1 8.3059-.12766 4.37422 4.37422 0 0 1 2.21264 4.45932h-1.03823c0-.05106-.09362-.0936-.09362-.14467-.12765-3.31045-2.90196-4.33167-5.88051-4.04232a7.80381 7.80381 0 0 0-2.55305.77442 2.55305 2.55305 0 0 0-1.48076 2.55305 2.55305 2.55305 0 0 0 1.70203 2.39986c1.31056.47657 2.6807.78294 4.0253 1.15738 1.08079.29786 2.20413.4936 3.25088.85102a3.83808 3.83808 0 0 1 2.63814 3.46363 4.09338 4.09338 0 0 1-2.20413 4.25508c-2.84239 1.60842-7.52297 1.1829-9.60796-.85102a5.67627 5.67627 0 0 1-1.65097-4.04232zM112.07547 23.70328h-1.13185c0-.15318-.05957-.28934-.0766-.417a3.70192 3.70192 0 0 0-3.01259-3.55724 7.42936 7.42936 0 0 0-4.7742.22978 2.90196 2.90196 0 0 0-2.102 2.7658 2.67219 2.67219 0 0 0 2.04244 2.6892c1.70203.52763 3.4466.85102 5.17417 1.32759a14.46726 14.46726 0 0 1 1.65097.5021 4.25508 4.25508 0 0 1 .22977 7.92295 9.4718 9.4718 0 0 1-7.65913.0766 5.31034 5.31034 0 0 1-3.19982-5.15716h1.10632a6.2039 6.2039 0 0 0 9.44627 3.94871 3.03812 3.03812 0 0 0 1.63395-2.8424 2.62964 2.62964 0 0 0-1.79564-2.6126c-1.32759-.4936-2.74027-.75741-4.09339-1.19143a30.15147 30.15147 0 0 1-4.14444-1.48928c-2.12754-1.04675-2.29774-5.15715.12765-6.46771a8.56972 8.56972 0 0 1 8.44207-.09361 4.45081 4.45081 0 0 1 2.13605 4.3657zM37.94353 35.5324a1.94883 1.94883 0 0 1-2.41689-.9191c-1.38715-2.07648-2.91898-4.05934-4.39124-6.08476l-.63826-.85101c-1.75309 2.3488-3.50618 4.60399-5.10609 6.94428a1.87223 1.87223 0 0 1-2.29774.90208l6.57835-8.82503-6.1188-7.97402a2.03393 2.03393 0 0 1 2.42539.85102c1.4212 2.07648 2.99557 4.05934 4.56144 6.16135 1.57438-2.08499 3.13174-4.07636 4.58698-6.13582a1.82968 1.82968 0 0 1 2.28072-.85101l-2.37434 3.14875c-1.06377 1.40418-2.11051 2.81686-3.21683 4.187a.85102.85102 0 0 0 0 1.26801c2.03392 2.69772 4.05083 5.40395 6.1273 8.17826zM65.87385 18.63974v1.19142a6.16986 6.16986 0 0 0-6.56984 6.3741v9.36118h-1.21695V18.70782h1.19142v3.45513c1.47226-2.519 3.74447-3.45513 6.59537-3.5232zM7.3325 26.58823c.17872-.85102.28935-1.77863.53614-2.64666 1.47226-5.23375 7.47192-7.41234 11.59934-4.16998 2.41689 1.89777 3.0211 4.58698 2.90197 7.6166H8.7537c-.22126 5.41245 3.6849 8.68035 8.68036 7.01236a5.18268 5.18268 0 0 0 3.29343-3.66788c.26381-.85101.68932-.99569 1.49778-.7489a6.91024 6.91024 0 0 1-3.30194 5.04653 7.99954 7.99954 0 0 1-9.31861-1.19142A8.3825 8.3825 0 0 1 7.51122 28.92c0-.28935-.11063-.5787-.1702-.85102q-.00852-.7574-.00852-1.48076zm1.43822-.36594h12.3142c-.0766-3.92318-2.55305-6.706-5.855-6.73153-3.67638-.05106-6.30602 2.67219-6.4677 6.7145z"/></svg>