<svg xmlns="http://www.w3.org/2000/svg" viewBox="0 0 96 93.6"><defs><style>.cls-1{fill:#ff3f94}</style></defs><g id="Layer_2" data-name="Layer 2"><g id="Layer_1-2" data-name="Layer 1"><path d="M0 0h96v93.6H0z" class="cls-1"/><path fill="#2e0013" d="M4.8 4.8h86.4v84H4.8z"/><path d="M68 60V22.56c0-.16 0-.32-.32-.32h-6.56a.34.34 0 0 0-.32.32v10.56h-2.08c-10.08 0-16.48 7.52-16.48 17 0 11.2 6.4 16.64 15.2 16.64A25.89 25.89 0 0 0 68 64.32c.32-.16.32-.16.32-.48A16.91 16.91 0 0 1 68 60zm-7.36 0a8.37 8.37 0 0 1-2.88.48c-4.64 0-8.32-3-8.32-10.56 0-6.56 3.68-10.56 8.8-10.56a9.68 9.68 0 0 1 2.4.32zM34.56 22.24h-6.24a.42.42 0 0 0-.48.48V65.6a.42.42 0 0 0 .48.48h6.08c.48 0 .48-.16.48-.48V22.72c.12-.32.12-.48-.32-.48z" class="cls-1"/></g></g></svg>