<svg xmlns="http://www.w3.org/2000/svg" xmlns:xlink="http://www.w3.org/1999/xlink" width="280" height="330"><defs><linearGradient id="a"><stop offset="0" stop-color="#fefefc"/><stop offset=".7573" stop-color="#fefefc"/><stop offset="1" stop-color="#d4d4d4"/></linearGradient><radialGradient id="h" cx="223.1956" cy="137.661" r="14.5722" fx="223.1956" fy="137.661" gradientTransform="matrix(1.08578 -.03431 .03944 1.24799 -154.542 -26.5426)" gradientUnits="userSpaceOnUse" xlink:href="#a"/><linearGradient id="b"><stop offset="0" stop-color="#fefefc"/><stop offset=".7573" stop-color="#fefefc"/><stop offset="1" stop-color="#d4d4d4"/></linearGradient><radialGradient id="g" cx="223.1956" cy="137.661" r="14.5722" fx="223.1956" fy="137.661" gradientTransform="matrix(.81524 -.03431 .02961 1.24799 -129.4374 -26.5426)" gradientUnits="userSpaceOnUse" xlink:href="#b"/><linearGradient id="c"><stop offset="0" stop-color="#3e2a06"/><stop offset="1" stop-color="#ad780a"/></linearGradient><linearGradient id="f" x1="442.0391" x2="490.1224" y1="371.544" y2="293.5855" gradientTransform="matrix(.87491 0 0 .81149 60.3672 62.587)" gradientUnits="userSpaceOnUse" xlink:href="#c"/><linearGradient id="e" x1="442.0391" x2="490.1224" y1="371.544" y2="293.5855" gradientUnits="userSpaceOnUse" xlink:href="#c"/><linearGradient id="d" x1="442.0391" x2="490.1224" y1="371.544" y2="293.5855" gradientUnits="userSpaceOnUse" xlink:href="#c"/><clipPath id="aS"><path fill="#402c07" d="M137.577 281.0191c1.5993-.663 3.3982-.7836 5.1008-.4696 1.7025.314 3.3114 1.0494 4.7434 2.0224 2.864 1.9458 4.9882 4.7777 7.0226 7.5795 4.672 6.434 9.1687 13.0022 13.2449 19.8293 3.3064 5.5376 6.3435 11.2568 10.1641 16.453 2.494 3.392 5.3067 6.5395 7.813 9.9222 2.5064 3.3828 4.728 7.0559 5.8394 11.1166 1.444 5.2766.8846 11.093-1.6267 15.953-1.7666 3.419-4.4765 6.3523-7.7724 8.339-3.296 1.9867-7.1707 3.0145-11.0164 2.8703-6.1141-.2293-11.6994-3.2852-17.3836-5.5491-11.581-4.6125-24.1598-6.0594-36.0966-9.6517-3.6686-1.104-7.2759-2.4107-10.97-3.4263-1.6412-.4513-3.3086-.8482-4.8587-1.5515-1.55-.7032-2.9995-1.749-3.8617-3.2167-.6664-1.1344-.9484-2.47-.9302-3.7856.0182-1.3155.326-2.6145.7738-3.8515.8959-2.4741 2.3433-4.7138 3.3202-7.157 1.5951-3.9894 1.8817-8.3884 1.6666-12.6794-.2151-4.291-.9108-8.5448-1.2046-12.8312-.1311-1.914-.1806-3.8525.1848-5.736.3655-1.8834 1.1758-3.7245 2.5577-5.0554 1.274-1.2269 2.965-1.9553 4.6965-2.3165 1.7315-.3612 3.5153-.3774 5.2836-.3376 1.7684.04 3.5407.1343 5.3035-.0106 1.7629-.1449 3.5335-.5405 5.0692-1.4183 1.46-.8344 2.6543-2.0745 3.6437-3.4342.9894-1.3598 1.789-2.8457 2.6089-4.314.8198-1.4682 1.6683-2.9315 2.7416-4.226 1.0732-1.2947 2.3892-2.4231 3.9426-3.067"/></clipPath><linearGradient id="D"><stop offset="0" stop-color="#b98309"/><stop offset="1" stop-color="#382605"/></linearGradient><filter id="aU" width="1.215" height="1.217" x="-.1075" y="-.1085" color-interpolation-filters="sRGB"><feGaussianBlur stdDeviation="3.9237"/></filter><filter id="aV" color-interpolation-filters="sRGB"><feGaussianBlur stdDeviation="2.4366"/></filter><linearGradient id="E"><stop offset="0" stop-color="#ebc40c"/><stop offset="1" stop-color="#ebc40c" stop-opacity="0"/></linearGradient><filter id="aX" color-interpolation-filters="sRGB"><feGaussianBlur stdDeviation=".3703"/></filter><clipPath id="aQ"><path fill="none" stroke="#729fcf" stroke-width=".125" d="M248.0607 184.6122a705.2126 705.2126 0 0 1-7.897 10.247c-2.833 3.607-5.7011 7.1865-8.5873 10.7513-3.5413 4.3741-7.1515 8.7929-9.4491 13.9305-1.974 4.4142-2.9101 9.2075-4.265 13.8493-1.5386 5.2715-3.6262 10.3702-5.9707 15.3361-2.1648 4.5854-4.5498 9.063-6.9389 13.5355-1.7382 3.2541-3.5051 6.581-4.1078 10.2208-.4763 2.8763-.1985 5.8442.5337 8.6662.7323 2.822 1.9097 5.5106 3.2378 8.106 5.6672 11.075 14.17 20.6217 24.2418 27.9248 4.5706 3.3141 9.4666 6.181 14.6024 8.5259 2.7825 1.2704 5.7136 2.4044 8.7719 2.4574 1.5291.0265 3.074-.2254 4.4743-.8405 1.4002-.6151 2.6507-1.6037 3.4825-2.8871 1.0228-1.5779 1.37-3.5383 1.1647-5.4074-.2053-1.8692-.9349-3.653-1.9133-5.2588-2.39-3.9225-6.1652-6.7605-9.7964-9.5734-7.8406-6.0736-15.4247-12.4804-22.6821-19.24-2.0491-1.9085-4.0984-3.8775-5.5302-6.284-1.3943-2.3436-2.1476-5.0138-2.6578-7.6926-1.3997-7.3487-1.0404-15.0827 1.4595-22.1334.978-2.7584 2.2707-5.3923 3.5182-8.0397 2.1622-4.5885 4.2113-9.263 7.0493-13.4672 3.5327-5.2333 8.2449-9.6728 11.1515-15.278 2.4545-4.7335 3.4935-10.0575 4.3618-15.3183a297.3162 297.3162 0 0 0 1.7462-12.1304"/></clipPath><filter id="aR" width="1.2021" height="1.0853" x="-.101" y="-.0427" color-interpolation-filters="sRGB"><feGaussianBlur stdDeviation="1.1322"/></filter><linearGradient id="B"><stop offset="0" stop-color="#7c7c7c"/><stop offset="1" stop-color="#7c7c7c" stop-opacity=".3294"/></linearGradient><clipPath id="aK"><path fill="none" stroke="#ce5c00" d="M386.1875 285.3277c-.4052-1.1036-1.1184-2.0815-1.9907-2.8698-.8723-.7883-1.9005-1.3923-2.9828-1.8516-2.1646-.9185-4.5205-1.2615-6.8315-1.6955-2.1792-.4093-4.3418-.9063-6.5278-1.2774-2.2714-.3855-4.618-.6321-6.8653-.1253-1.9659.4434-3.7845 1.4588-5.2717 2.8187-1.4873 1.3598-2.6492 3.0564-3.485 4.89-1.4722 3.2296-1.9345 6.865-1.654 10.4032.2088 2.6333.8753 5.346 2.6088 7.3391 1.4006 1.6105 3.3873 2.6153 5.434 3.221 3.525 1.0431 7.3666.9882 10.8604-.1554 5.7669-1.931 10.8756-5.7738 14.3303-10.779 1.1386-1.6496 2.1122-3.448 2.5532-5.4034.336-1.4895.3483-3.0811-.1779-4.5145"/></clipPath><filter id="aM" width="1.1409" height="1.3012" x="-.0705" y="-.1506" color-interpolation-filters="sRGB"><feGaussianBlur stdDeviation="1.0252"/></filter><linearGradient id="C"><stop offset="0" stop-color="#7c7c7c"/><stop offset="1" stop-color="#7c7c7c" stop-opacity=".3294"/></linearGradient><clipPath id="aN"><path fill="none" stroke="#ce5c00" d="M386.1875 285.3277c-.4052-1.1036-1.1184-2.0815-1.9907-2.8698-.8723-.7883-1.9005-1.3923-2.9828-1.8516-2.1646-.9185-4.5205-1.2615-6.8315-1.6955-2.1792-.4093-4.3418-.9063-6.5278-1.2774-2.2714-.3855-4.618-.6321-6.8653-.1253-1.9659.4434-3.7845 1.4588-5.2717 2.8187-1.4873 1.3598-2.6492 3.0564-3.485 4.89-1.4722 3.2296-1.9345 6.865-1.654 10.4032.2088 2.6333.8753 5.346 2.6088 7.3391 1.4006 1.6105 3.3873 2.6153 5.434 3.221 3.525 1.0431 7.3666.9882 10.8604-.1554 5.7669-1.931 10.8756-5.7738 14.3303-10.779 1.1386-1.6496 2.1122-3.448 2.5532-5.4034.336-1.4895.3483-3.0811-.1779-4.5145"/></clipPath><filter id="aP" width="1.1409" height="1.3012" x="-.0705" y="-.1506" color-interpolation-filters="sRGB"><feGaussianBlur stdDeviation="1.0252"/></filter><linearGradient id="z"><stop offset="0" stop-color="#110800"/><stop offset=".5907" stop-color="#a65a00" stop-opacity=".8"/><stop offset="1" stop-color="#ff921e" stop-opacity="0"/></linearGradient><filter id="aH" width="1.401" height="1.4682" x="-.2005" y="-.2341" color-interpolation-filters="sRGB"><feGaussianBlur stdDeviation="2.8444"/></filter><linearGradient id="A"><stop offset="0" stop-color="#110800"/><stop offset=".5907" stop-color="#a65a00" stop-opacity=".8"/><stop offset="1" stop-color="#ff921e" stop-opacity="0"/></linearGradient><filter id="aJ" width="1.1828" height="1.2134" x="-.0914" y="-.1067" color-interpolation-filters="sRGB"><feGaussianBlur stdDeviation="1.2968"/></filter><filter id="aF" width="1.9387" height="1.5474" x="-.4693" y="-.2737" color-interpolation-filters="sRGB"><feGaussianBlur stdDeviation=".8599"/></filter><filter id="aE" width="2.2078" height="1.9645" x="-.6039" y="-.4823" color-interpolation-filters="sRGB"><feGaussianBlur stdDeviation="2.64"/></filter><linearGradient id="w"><stop offset="0"/><stop offset="1" stop-opacity="0"/></linearGradient><filter id="av" color-interpolation-filters="sRGB"><feGaussianBlur stdDeviation="2.2092"/></filter><linearGradient id="x"><stop offset="0" stop-color="#3e2a06"/><stop offset="1" stop-color="#ad780a"/></linearGradient><clipPath id="aw"><path fill="url(#d)" d="M516.0056 331.8756a16.9326 16.9326 0 0 1-2.8158 4.7383c-2.6238 3.1148-6.268 5.1704-9.8964 7.0198-6.1886 3.1544-12.6017 5.9218-18.4197 9.7166-3.898 2.5424-7.4959 5.5267-10.8601 8.7423-2.8772 2.7502-5.6059 5.6875-8.8325 8.0177-3.2557 2.3513-7.0192 4.0543-10.9906 4.6502-4.8303.7249-9.8214-.2128-14.299-2.1641-3.1376-1.3673-6.1557-3.323-7.963-6.2293-1.8143-2.9176-2.228-6.4882-2.2327-9.9238-.008-6.0766 1.1183-12.09 2.1785-18.0735.881-4.9717 1.7195-9.9548 2.2601-14.975.9834-9.1312.9763-18.3528.32-27.5133-.11-1.5341-.2376-3.0832-.008-4.604.2292-1.521.8547-3.0368 2.0206-4.04 1.077-.9265 2.521-1.336 3.9395-1.4144 1.4185-.0785 2.834.1465 4.2398.352 3.3125.484 6.6516.8648 9.8892 1.7165 2.0428.5374 4.0331 1.2592 6.0722 1.8108 3.4026.9204 6.9664 1.3614 10.4674.952 3.7691-.441 7.4298-1.8569 11.2236-1.7648 1.5566.0378 3.1015.3317 4.5865.7998 1.5154.4778 3.0091 1.1619 4.1228 2.2952.8464.8613 1.4358 1.9453 1.8787 3.0687.6598 1.6736 1.015 3.457 1.167 5.2495.1348 1.5879.1135 3.1944.4144 4.7593.495 2.5746 1.8474 4.923 3.5285 6.935 1.681 2.0119 3.6898 3.7204 5.6964 5.4078 1.999 1.681 4.0106 3.3547 6.167 4.8284 1.0122.6916 2.0565 1.3395 3.0174 2.1006.961.7611 1.8447 1.6468 2.4454 2.7154.815 1.4494 1.0638 3.2077.6831 4.8263"/></clipPath><clipPath id="ay"><path fill="url(#e)" d="M516.0056 331.8756a16.9326 16.9326 0 0 1-2.8158 4.7383c-2.6238 3.1148-6.268 5.1704-9.8964 7.0198-6.1886 3.1544-12.6017 5.9218-18.4197 9.7166-3.898 2.5424-7.4959 5.5267-10.8601 8.7423-2.8772 2.7502-5.6059 5.6875-8.8325 8.0177-3.2557 2.3513-7.0192 4.0543-10.9906 4.6502-4.8303.7249-9.8214-.2128-14.299-2.1641-3.1376-1.3673-6.1557-3.323-7.963-6.2293-1.8143-2.9176-2.228-6.4882-2.2327-9.9238-.008-6.0766 1.1183-12.09 2.1785-18.0735.881-4.9717 1.7195-9.9548 2.2601-14.975.9834-9.1312.9763-18.3528.32-27.5133-.11-1.5341-.2376-3.0832-.008-4.604.2292-1.521.8547-3.0368 2.0206-4.04 1.077-.9265 2.521-1.336 3.9395-1.4144 1.4185-.0785 2.834.1465 4.2398.352 3.3125.484 6.6516.8648 9.8892 1.7165 2.0428.5374 4.0331 1.2592 6.0722 1.8108 3.4026.9204 6.9664 1.3614 10.4674.952 3.7691-.441 7.4298-1.8569 11.2236-1.7648 1.5566.0378 3.1015.3317 4.5865.7998 1.5154.4778 3.0091 1.1619 4.1228 2.2952.8464.8613 1.4358 1.9453 1.8787 3.0687.6598 1.6736 1.015 3.457 1.167 5.2495.1348 1.5879.1135 3.1944.4144 4.7593.495 2.5746 1.8474 4.923 3.5285 6.935 1.681 2.0119 3.6898 3.7204 5.6964 5.4078 1.999 1.681 4.0106 3.3547 6.167 4.8284 1.0122.6916 2.0565 1.3395 3.0174 2.1006.961.7611 1.8447 1.6468 2.4454 2.7154.815 1.4494 1.0638 3.2077.6831 4.8263"/></clipPath><filter id="az" width="1.29" height="1.286" x="-.145" y="-.143" color-interpolation-filters="sRGB"><feGaussianBlur stdDeviation="4.7787"/></filter><clipPath id="aA"><path fill="url(#f)" d="M511.8267 331.8999a14.1747 14.1747 0 0 1-2.4636 3.845c-2.3252 2.588-5.507 4.2225-8.6585 5.6965-5.4205 2.5354-11.0007 4.7788-16.1156 7.8849-3.383 2.0543-6.537 4.4722-9.5017 7.0943-2.5246 2.2329-4.9298 4.6271-7.7276 6.5063-2.8831 1.9364-6.1753 3.2989-9.6158 3.7736-4.2182.582-8.5534-.1834-12.5104-1.7562-2.709-1.0769-5.3662-2.6185-6.967-5.055-1.538-2.3413-1.9332-5.2518-1.9533-8.053-.0354-4.9386.965-9.8182 1.906-14.6665.7821-4.0299 1.5268-8.0717 1.9774-12.152.8178-7.406.6611-14.8854.2799-22.3267-.064-1.249-.1336-2.5105.0789-3.743.2126-1.2325.7365-2.4525 1.6817-3.2715.9391-.8137 2.2095-1.1594 3.451-1.2115 1.2416-.052 2.4765.1639 3.7052.3493 2.8897.4362 5.8108.7091 8.6521 1.393 1.7865.43 3.531 1.0201 5.3127 1.4694 2.9863.7532 6.0964 1.1071 9.158.7725 3.2941-.36 6.5069-1.5096 9.8197-1.432 1.3584.0317 2.7075.2714 4.0128.649 1.3126.3798 2.6174.9202 3.607 1.8625.7254.6906 1.2501 1.5693 1.6438 2.4903.5762 1.3481.8862 2.7999 1.021 4.2598.119 1.2886.1047 2.594.3625 3.8622.437 2.1487 1.6397 4.0813 3.115 5.7035 1.4755 1.6221 3.2242 2.9675 4.956 4.3125 1.7563 1.364 3.5097 2.7398 5.3956 3.9181.8823.5513 1.7935 1.0594 2.6348 1.6715.8412.612 1.6188 1.339 2.1447 2.2366.6839 1.1671.9023 2.5986.5976 3.9166"/></clipPath><filter id="aB" width="1.2306" height="1.2499" x="-.1153" y="-.1249" color-interpolation-filters="sRGB"><feGaussianBlur stdDeviation="3.1725"/></filter><linearGradient id="y"><stop offset="0" stop-color="#f3cd0c"/><stop offset="1" stop-color="#f3cd0c" stop-opacity="0"/></linearGradient><filter id="aD" width="1.0418" height="1.2585" x="-.0209" y="-.1293" color-interpolation-filters="sRGB"><feGaussianBlur stdDeviation=".4795"/></filter><filter id="at" width="1.3551" height="1.3189" x="-.1775" y="-.1594" color-interpolation-filters="sRGB"><feGaussianBlur stdDeviation=".9008"/></filter><filter id="as" width="2.6332" height="1.1156" x="-.8166" y="-.0578" color-interpolation-filters="sRGB"><feGaussianBlur stdDeviation="1.4463"/></filter><linearGradient id="v"><stop offset="0"/><stop offset="1" stop-opacity=".2489"/></linearGradient><filter id="ar" color-interpolation-filters="sRGB"><feGaussianBlur stdDeviation=".7855"/></filter><filter id="ap" color-interpolation-filters="sRGB"><feGaussianBlur stdDeviation="1.1383"/></filter><linearGradient id="u"><stop offset="0"/><stop offset="1" stop-opacity=".2489"/></linearGradient><filter id="an" color-interpolation-filters="sRGB"><feGaussianBlur stdDeviation=".6434"/></filter><clipPath id="ak"><path fill="none" stroke="#c17d11" d="M304.8473 225.4495c6.0162 4.9234 9.777 12.317 10.9432 20.003 1.8254 12.0315-2.3464 24.075-6.446 35.5328-.8174 2.2848-1.6397 4.5903-1.9647 6.9951-.325 2.4048-.119 4.9483 1.0295 7.086 1.3028 2.425 3.7323 4.1247 6.3668 4.9229 2.5887.7844 5.3936.761 8.0146.0922 2.621-.6688 5.061-1.9678 7.1872-3.64 5.48-4.31 8.758-10.9855 10.0104-17.844 1.2524-6.8583.6391-13.9287-.551-20.7982-1.6231-9.3692-4.309-18.5396-7.74-27.4077-2.5177-6.5074-5.468-12.9109-9.6175-18.5202-4.0462-5.4695-9.1621-10.0895-13.1034-15.635-2.732-3.8441-4.8998-8.131-8.1917-11.5081-1.646-1.6886-3.5765-3.1353-5.7698-4.0015-2.1932-.8661-4.6635-1.1244-6.9325-.4825-1.5047.4258-2.892 1.2374-4.0379 2.3014-1.146 1.064-2.0527 2.3764-2.6928 3.8031-1.2801 2.8535-1.4771 6.1124-.965 9.1977.661 3.9834 2.444 7.6933 4.4656 11.1887 2.274 3.9317 4.918 7.7193 8.3844 10.6541 3.5985 3.0467 7.9616 5.0741 11.6106 8.0602"/></clipPath><filter id="al" width="1.2351" height="1.0801" x="-.1175" y="-.04" color-interpolation-filters="sRGB"><feGaussianBlur stdDeviation="1.3521"/></filter><linearGradient id="t"><stop offset="0" stop-color="#c8c8c8"/><stop offset="1" stop-color="#797978"/></linearGradient><clipPath id="ai"><path fill="url(#g)" d="M54.2324 122.3622c-1.781.097-3.4846.919-4.7878 2.1367-1.3032 1.2177-2.2214 2.8117-2.7862 4.5035-1.1296 3.3837-.8755 7.0518-.6187 10.6098.2325 3.2216.4704 6.5053 1.6768 9.5016.6032 1.498 1.4502 2.9102 2.5803 4.064 1.1301 1.1537 2.5518 2.0418 4.1183 2.4344 1.4689.368 3.0382.2918 4.4828-.1621 1.4446-.454 2.764-1.2789 3.8463-2.338 1.579-1.545 2.6432-3.5661 3.2534-5.6894.6102-2.1233.7842-4.3515.7524-6.5605-.0397-2.7644-.401-5.5385-1.2658-8.1644-.8648-2.6259-2.2457-5.1033-4.1727-7.0856-.9334-.9601-1.9978-1.8051-3.1986-2.3975-1.2009-.5923-2.5435-.9253-3.8805-.8525"/></clipPath><linearGradient id="p"><stop offset="0" stop-color="#d2940a"/><stop offset=".7514" stop-color="#d89c08"/><stop offset=".8658" stop-color="#b67e07"/><stop offset="1" stop-color="#946106"/></linearGradient><filter id="Y" width="1.3097" height="1.4299" x="-.1548" y="-.2149" color-interpolation-filters="sRGB"><feGaussianBlur stdDeviation=".8986"/></filter><filter id="Z" color-interpolation-filters="sRGB"><feGaussianBlur stdDeviation=".7582"/></filter><linearGradient id="q"><stop offset="0" stop-color="#ad780a"/><stop offset=".1197" stop-color="#d89e08"/><stop offset=".2551" stop-color="#edb80b"/><stop offset=".3919" stop-color="#ebc80d"/><stop offset=".5274" stop-color="#f5d838"/><stop offset=".7691" stop-color="#f6d811"/><stop offset="1" stop-color="#f5cd31"/></linearGradient><filter id="ab" width="1.3219" height="1.2606" x="-.161" y="-.1303" color-interpolation-filters="sRGB"><feGaussianBlur stdDeviation=".8488"/></filter><linearGradient id="r"><stop offset="0" stop-color="#3a2903"/><stop offset=".5547" stop-color="#735208"/><stop offset="1" stop-color="#ac8c04"/></linearGradient><filter id="ad" color-interpolation-filters="sRGB"><feGaussianBlur stdDeviation=".1104"/></filter><filter id="af" width="1.2329" height="1.2115" x="-.1164" y="-.1057" color-interpolation-filters="sRGB"><feGaussianBlur stdDeviation=".1104"/></filter><linearGradient id="s"><stop offset="0" stop-color="#f5ce2d"/><stop offset="1" stop-color="#d79b08"/></linearGradient><filter id="ah" width="1.2146" height="1.2722" x="-.1073" y="-.1361" color-interpolation-filters="sRGB"><feGaussianBlur stdDeviation=".2641"/></filter><linearGradient id="o"><stop offset="0" stop-color="#757574" stop-opacity="0"/><stop offset=".2629" stop-color="#757574"/><stop offset=".5" stop-color="#757574"/><stop offset="1" stop-color="#757574" stop-opacity="0"/></linearGradient><filter id="W" width="1.4689" height="1.2921" x="-.2345" y="-.1461" color-interpolation-filters="sRGB"><feGaussianBlur stdDeviation=".5126"/></filter><linearGradient id="n"><stop offset="0" stop-color="#646464" stop-opacity="0"/><stop offset=".3063" stop-color="#646464" stop-opacity=".5825"/><stop offset=".47" stop-color="#646464"/><stop offset=".7283" stop-color="#646464" stop-opacity=".2573"/><stop offset="1" stop-color="#646464" stop-opacity="0"/></linearGradient><filter id="U" color-interpolation-filters="sRGB"><feGaussianBlur stdDeviation=".1348"/></filter><filter id="S" color-interpolation-filters="sRGB"><feGaussianBlur stdDeviation=".1475"/></filter><linearGradient id="m"><stop offset="0" stop-color="#747474"/><stop offset=".125" stop-color="#8c8c8c"/><stop offset=".25" stop-color="#a4a4a4"/><stop offset=".5" stop-color="#d4d4d4"/><stop offset=".6192" stop-color="#d4d4d4"/><stop offset="1" stop-color="#7c7c7c"/></linearGradient><clipPath id="P"><path fill="url(#h)" d="M85.75 122.3622c-2.7804 1.9102-5.1106 4.5748-6.25 7.75-1.436 4.0016-.8858 8.4807.5 12.5 1.4195 4.1169 3.7938 8.041 7.3793 10.5123 1.7928 1.2357 3.8681 2.083 6.0304 2.3386 2.1623.2556 4.4093-.0949 6.3403-1.101 2.3531-1.2259 4.1478-3.3727 5.2622-5.7807 1.1143-2.408 1.5888-5.07 1.7378-7.7192.1899-3.3755-.1405-6.8065-1.25-10-1.2053-3.4691-3.39-6.6706-6.4728-8.6666-1.5413-.998-3.2919-1.6836-5.1108-1.9352-1.819-.2516-3.7048-.0633-5.4164.6018-.9755.379-1.8874.9074-2.75 1.5"/></clipPath><filter id="M" width="1.3159" height="1.4184" x="-.158" y="-.2092" color-interpolation-filters="sRGB"><feGaussianBlur stdDeviation=".2489"/></filter><linearGradient id="l"><stop offset="0" stop-color="#949494" stop-opacity=".3922"/><stop offset=".5" stop-color="#949494"/><stop offset="1" stop-color="#949494" stop-opacity=".3922"/></linearGradient><filter id="O" width="1.3574" height="1.3627" x="-.1787" y="-.1813" color-interpolation-filters="sRGB"><feGaussianBlur stdDeviation=".5195"/></filter><filter id="L" width="1.5844" height="1.6165" x="-.2922" y="-.3083" color-interpolation-filters="sRGB"><feGaussianBlur stdDeviation="1.7403"/></filter><linearGradient id="k"><stop offset="0" stop-color="#020204"/><stop offset=".7345" stop-color="#020204"/><stop offset="1" stop-color="#5c5c5c"/></linearGradient><filter id="J" width="1.1083" height="1.2148" x="-.0542" y="-.1074" color-interpolation-filters="sRGB"><feGaussianBlur stdDeviation="1.3605"/></filter><linearGradient id="j"><stop offset="0" stop-color="#fefefc"/><stop offset=".7573" stop-color="#fefefc"/><stop offset="1" stop-color="#d4d4d4"/></linearGradient><linearGradient id="i"><stop offset="0" stop-color="#fefefc"/><stop offset=".7573" stop-color="#fefefc"/><stop offset="1" stop-color="#d4d4d4"/></linearGradient><filter id="G" color-interpolation-filters="sRGB"><feGaussianBlur stdDeviation=".9315"/></filter><filter id="F" width="1.1528" height="1.2584" x="-.0764" y="-.1292" color-interpolation-filters="sRGB"><feGaussianBlur stdDeviation="2.0355"/></filter><radialGradient id="H" cx="223.1956" cy="137.661" r="14.5722" fx="223.1956" fy="137.661" gradientTransform="matrix(.81524 -.03431 .02961 1.24799 -208.4374 -35.5426)" gradientUnits="userSpaceOnUse" xlink:href="#i"/><radialGradient id="I" cx="223.1956" cy="137.661" r="14.5722" fx="223.1956" fy="137.661" gradientTransform="matrix(1.08578 -.03431 .03944 1.24799 -233.542 -35.5426)" gradientUnits="userSpaceOnUse" xlink:href="#j"/><radialGradient id="K" cx="275.5376" cy="150.6513" r="15.3822" fx="275.5376" fy="150.6513" gradientTransform="matrix(.69785 -.50717 .46034 .6334 -271.102 183.0301)" gradientUnits="userSpaceOnUse" xlink:href="#k"/><linearGradient id="N" x1="213.0159" x2="219.7334" y1="132.7698" y2="140.7248" gradientTransform="translate(90)" gradientUnits="userSpaceOnUse" xlink:href="#l"/><linearGradient id="Q" x1="337.25" x2="358.625" y1="119.9872" y2="132.4872" gradientTransform="translate(-250)" gradientUnits="userSpaceOnUse" xlink:href="#m"/><linearGradient id="R" x1="294.51" x2="308.7405" y1="114.5618" y2="127.9968" gradientTransform="translate(-279 -9)" gradientUnits="userSpaceOnUse" xlink:href="#n"/><linearGradient id="T" x1="253.2275" x2="266.627" y1="115.6664" y2="128.5711" gradientTransform="translate(-279 -9)" gradientUnits="userSpaceOnUse" xlink:href="#n"/><linearGradient id="V" x1="164.0488" x2="169.8824" y1="132.0627" y2="142.4925" gradientUnits="userSpaceOnUse" xlink:href="#o"/><radialGradient id="X" cx="294.4848" cy="193.0995" r="31.1115" fx="294.4848" fy="193.0995" gradientTransform="matrix(.93619 -.3864 .27133 .65739 -244.4753 146.7229)" gradientUnits="userSpaceOnUse" xlink:href="#p"/><linearGradient id="aa" x1="256.8566" x2="313.3367" y1="158.314" y2="157.8721" gradientTransform="translate(-210)" gradientUnits="userSpaceOnUse" xlink:href="#q"/><radialGradient id="ac" cx="77.6722" cy="147.0933" r="3.2301" fx="77.6722" fy="147.0933" gradientTransform="matrix(1 0 0 .58333 0 61.4162)" gradientUnits="userSpaceOnUse" xlink:href="#r"/><radialGradient id="ae" cx="63.1254" cy="147.4413" r="1.535" fx="63.1254" fy="147.4413" gradientTransform="matrix(1 0 0 1.07512 0 -11.0942)" gradientUnits="userSpaceOnUse" xlink:href="#r"/><linearGradient id="ag" x1="243.0313" x2="243.4688" y1="157.0184" y2="159.7684" gradientUnits="userSpaceOnUse" xlink:href="#s"/><radialGradient id="aj" cx="268.07" cy="126.5349" r="35.5114" fx="268.07" fy="126.5349" gradientTransform="matrix(.20141 -.03316 .03065 .18616 -3.1264 114.0359)" gradientUnits="userSpaceOnUse" xlink:href="#t"/><radialGradient id="am" cx="336.2237" cy="220.5376" r="27.3912" fx="336.2237" fy="220.5376" gradientTransform="matrix(-.69844 0 0 .76336 166.3057 50.22)" gradientUnits="userSpaceOnUse" xlink:href="#u"/><radialGradient id="ao" cx="312.145" cy="236.3657" r="27.3912" fx="312.145" fy="236.3657" gradientTransform="matrix(1 0 0 .76336 -289 41.22)" gradientUnits="userSpaceOnUse" xlink:href="#v"/><radialGradient id="aq" cx="275.5539" cy="225.1349" r="10.8454" fx="275.5539" fy="225.1349" gradientTransform="matrix(1 0 0 1.06923 -289 -23.8603)" gradientUnits="userSpaceOnUse" xlink:href="#v"/><linearGradient id="au" x1="338.2855" x2="341.9822" y1="323.9008" y2="351.4865" gradientTransform="translate(-310)" gradientUnits="userSpaceOnUse" xlink:href="#w"/><linearGradient id="ax" x1="442.0391" x2="490.1224" y1="371.544" y2="293.5855" gradientUnits="userSpaceOnUse" xlink:href="#x"/><linearGradient id="aC" x1="355.1637" x2="353.7495" y1="289.589" y2="302.317" gradientTransform="translate(-310)" gradientUnits="userSpaceOnUse" xlink:href="#y"/><radialGradient id="aG" cx="363.3396" cy="303.4154" r="16.8457" fx="363.3396" fy="303.4154" gradientTransform="matrix(1.3082 .35053 -.36795 1.37322 -310.5093 -240.3492)" gradientUnits="userSpaceOnUse" xlink:href="#z"/><radialGradient id="aI" cx="363.3396" cy="303.4154" r="16.8457" fx="363.3396" fy="303.4154" gradientTransform="matrix(1.3082 .35053 -.36795 1.37322 -310.5093 -240.3492)" gradientUnits="userSpaceOnUse" xlink:href="#A"/><radialGradient id="aL" cx="382.2348" cy="246.8576" r="20.5377" fx="382.2348" fy="246.8576" gradientTransform="matrix(.36025 .1568 -.07247 .1665 260.6168 181.9383)" gradientUnits="userSpaceOnUse" xlink:href="#B"/><linearGradient id="aO" x1="358.5" x2="361.5" y1="279.3622" y2="279.2372" gradientUnits="userSpaceOnUse" xlink:href="#C"/><linearGradient id="aT" x1="123.134" x2="170.8637" y1="301.5404" y2="381.6203" gradientUnits="userSpaceOnUse" xlink:href="#D"/><linearGradient id="aW" x1="171.5708" x2="186.5968" y1="323.9911" y2="352.2754" gradientTransform="translate(-.5303 -1.7678)" gradientUnits="userSpaceOnUse" xlink:href="#E"/></defs><path fill="#020204" d="M200.524 123.372c3.2564 7.0906 6.891 14.0032 10.121 21.106 6.2164 13.669 10.9368 28.103 12.8983 42.9905 1.9616 14.8876 1.105 30.258-3.5537 44.5332-5.2584 16.1127-15.2388 30.4476-27.4696 42.1813-14.4676 13.8795-33.0404 24.5814-53.0737 25.37-13.054.5139-26.0501-3.2184-37.6108-9.303-9.7152-5.1133-18.5836-11.927-25.6602-20.3205-7.0766-8.3936-12.3304-18.3872-14.7633-29.0929-2.996-13.1832-1.6411-27.1781 2.8938-39.9142 3.243-9.1082 8.0495-17.5877 11.472-26.63 3.7398-9.8807 5.8284-20.4302 10.7831-29.7611 4.4915-8.4585 11.2264-15.6862 14.8042-24.5698 2.137-5.3062 3.0636-11.0054 4.4435-16.5568 1.38-5.5514 3.312-11.1442 7.0701-15.4568 4.5286-5.1966 11.343-8.0144 18.1906-8.8046 6.8476-.7902 13.7776.2769 20.4983 1.8085 5.3507 1.2194 10.6349 2.7353 15.8054 4.5743 4.4134 1.5697 8.7857 3.3976 12.602 6.1139 5.1989 3.7003 9.1603 8.9106 12.3152 14.4575 3.1549 5.5469 5.5705 11.4754 8.2337 17.2744"/><path fill="#020204" d="M143.0354 299.6768c5.5008.32 10.9909.8544 16.4392 1.6773 4.792.7236 9.5498 1.67 14.2597 2.8116 7.3772 1.7878 14.7282 4.0679 22.3159 4.284 1.9972.057 4.0102-.032 5.9606-.4663 1.9503-.4343 3.8423-1.2255 5.4045-2.4713 2.3292-1.8574 3.81-4.6584 4.3571-7.587.5472-2.9284.2084-5.9758-.6492-8.8289-1.7153-5.7061-5.3898-10.5753-8.4366-15.6957-1.7447-2.9322-3.2995-5.9799-5.189-8.8208-1.8897-2.841-4.1514-5.5012-7.0192-7.3499-3.9676-2.5578-8.8878-3.3919-13.5852-2.9235-4.6973.4683-9.2004 2.165-13.3924 4.3356-5.8763 3.0424-11.407 7.2195-14.6115 13.009-1.1153 2.0149-1.9253 4.1811-2.8725 6.2802s-2.0557 4.1657-3.6603 5.8176c-1.789 1.8416-4.112 3.084-5.9629 4.8634-.9254.8897-1.7355 1.9253-2.2098 3.1182-.4744 1.193-.5917 2.556-.1588 3.7646.2968.8288.841 1.5585 1.5109 2.1298.6698.5713 1.4622.9886 2.2928 1.2804 1.6612.5836 3.449.6694 5.2067.7717"/><path fill="#020204" d="M126.6867 299.3232c-4.5839.1058-9.12.926-13.6103 1.854-4.2923.8873-8.5642 1.8756-12.8036 2.9885-7.1539 1.878-14.3175 4.1269-21.712 4.284-1.9462.0415-3.9063-.065-5.8027-.5037-1.8965-.4388-3.733-1.2204-5.255-2.4339-2.3251-1.8536-3.8028-4.6493-4.3504-7.572-.5477-2.9227-.2131-5.964.6353-8.814 1.6968-5.6999 5.3364-10.5787 8.3158-15.7256 1.693-2.9247 3.1872-5.9664 5.018-8.807 1.8308-2.8404 4.0363-5.507 6.86-7.3637 3.8483-2.5306 8.6467-3.3874 13.2303-2.9356 4.5837.4519 8.9751 2.1398 13.0174 4.3477 5.7064 3.1168 10.9165 7.4062 14.2161 13.009 2.315 3.9308 3.651 8.4246 6.356 12.0978 1.4566 1.9779 3.2893 3.6861 4.5012 5.8227.606 1.0683 1.0497 2.2454 1.1532 3.4692.1035 1.2238-.1514 2.498-.84 3.515-.4555.6725-1.0874 1.2166-1.7934 1.6183-.706.4017-1.4853.6647-2.2804.8307-1.5903.332-3.2313.2811-4.8555.3186M101.073 108.4373c-.6443-7.7505-.49-15.5432-.7793-23.315-.278-7.4729-.9664-14.9422-.7149-22.416.2562-7.6106 1.5304-15.3091 4.9139-22.1311 3.385-6.8253 8.8788-12.6079 15.5854-16.2222 6.3103-3.4007 13.566-4.8529 20.734-4.775 9.7188.1058 19.4636 3.0417 27.3343 8.7442 4.9328 3.574 9.0847 8.1784 12.3577 13.316 2.7934 4.3845 4.9635 9.174 6.3253 14.1913 2.7929 10.29 2.1306 21.1478 2.6738 31.7963.5148 10.0917 2.1305 20.1604 1.5812 30.2502-.1192 2.1913-.3563 4.4339-1.333 6.399-.9518 1.9151-2.568 3.4553-4.4247 4.5167-1.8565 1.0614-3.9472 1.6657-6.0608 1.9918-4.2271.6523-8.5486.222-12.8075.6169-6.18.573-12.0749 2.8651-18.2085 3.8135-7.3095 1.1302-14.7573.3287-22.1478.0336-2.96-.1182-5.929-.155-8.8684-.5235-2.9393-.3685-5.8695-1.081-8.4839-2.474-1.611-.8584-3.0934-1.975-4.2954-3.349s-2.119-3.0094-2.5768-4.7766c-.6874-2.6528-.3249-5.4461-.3153-8.1866.0088-2.5064-.2818-5.0027-.4894-7.5005"/><path fill="#fdfdfb" d="M112.7042 105.4521c-1.0464 1.3114-1.7278 2.8873-2.1393 4.5137-.4115 1.6265-.5623 3.308-.6265 4.9845-.1285 3.353.0764 6.7701-.811 10.006-.9487 3.4595-3.076 6.4565-5.1576 9.378-3.6048 5.0591-7.2485 10.2501-9.027 16.2022-1.0772 3.6046-1.4357 7.4225-1.0485 11.1647a118.0665 118.0665 0 0 0-10.4229 18.7807c-4.3862 9.9416-7.396 20.5265-8.4545 31.341-1.296 13.2424.3976 26.8619 5.6275 39.0966 3.7813 8.846 9.4177 16.9438 16.6856 23.2466 3.6954 3.2047 7.7997 5.9394 12.1895 8.097 15.2125 7.4772 34.0135 7.491 48.973-.4802 7.8184-4.1661 14.4179-10.2582 20.7808-16.4224 3.8318-3.712 7.6435-7.5124 10.5665-11.9755 5.6275-8.5923 7.5875-19.0356 8.8055-29.2343 2.1297-17.8332 2.1984-36.67-5.6214-52.8382-2.6922-5.5664-6.279-10.6989-10.5806-15.1405-1.1455-7.7809-3.4064-15.3967-6.6922-22.5422-2.3704-5.155-5.2683-10.0618-7.4707-15.2908-.9043-2.1467-1.69-4.3449-2.6935-6.447-1.0035-2.1021-2.2415-4.125-3.9245-5.7354-1.7234-1.6491-3.871-2.8182-6.1359-3.5663-2.265-.748-4.6492-1.087-7.0315-1.2068-4.7646-.2397-9.5387.3835-14.3056.1942-3.7947-.1506-7.5777-.8156-11.3689-.5918-1.8955.1119-3.7908.4505-5.5502 1.1649-1.7594.7143-3.3818 1.817-4.5661 3.3013"/><path fill-opacity=".2588" d="M-28.6325 172.6014c1.703 4.9377 5.1304 9.152 9.1859 12.4435 1.3486 1.0946 2.7821 2.1044 4.3662 2.817 1.584.7126 3.3316 1.1195 5.0624.9725 1.695-.144 3.3074-.8094 4.7887-1.6458 1.4812-.8364 2.856-1.8469 4.293-2.7572 2.4626-1.5602 5.0998-2.8214 7.6571-4.221 3.0825-1.6869 6.0696-3.5901 8.6647-5.9592 1.188-1.0845 2.2958-2.268 3.6075-3.199 1.3118-.9309 2.883-1.6056 4.4879-1.4964 1.2038.0819 2.3329.5938 3.5124.848.5898.127 1.2008.1892 1.7973.0983.5964-.0909 1.1797-.3444 1.5979-.7793.5123-.5328.7364-1.2998.7096-2.0385-.0268-.7388-.2845-1.453-.6289-2.1071-.6888-1.3082-1.7345-2.4352-2.2002-3.8384-.4144-1.2486-.3305-2.5988-.294-3.914.0366-1.3151.0076-2.689-.5985-3.8567-.4616-.8892-1.2362-1.5952-2.1217-2.0639-.8855-.4687-1.8786-.71-2.876-.8036-1.995-.1873-3.994.2-5.9946.3134-2.6558.1507-5.322-.1817-7.9772-.022-3.3113.199-6.557 1.1605-9.8743 1.1664-3.786.007-7.5681-1.232-11.3075-.64-1.6046.254-3.1348.8376-4.6757 1.3522-1.541.5146-3.1328.9673-4.7571.9437-1.8442-.0267-3.6293-.6653-5.469-.7966-.9199-.0656-1.8625-.0002-2.7261.3232-.8636.3235-1.6445.9236-2.0684 1.7426-.2428.4694-.3632.9969-.3858 1.5248-.0227.528.0502 1.057.1778 1.5699.2551 1.0256.7242 1.9828 1.1098 2.9668 1.3925 3.5538 1.6924 7.448 2.9368 11.0564" filter="url(#F)" transform="translate(138.9998 -49.3622)"/><path d="M-54.3809 165.4735a39.396 39.396 0 0 1 8.7695 8.0515c2.3132 2.8836 4.281 6.1543 7.2993 8.2889 2.1326 1.5082 4.6949 2.3578 7.294 2.616 3.0516.3032 6.1398-.1868 9.0818-1.052 2.7266-.802 5.3632-1.9293 7.7821-3.4214 4.5983-2.8364 8.4392-6.9928 13.51-8.8571 1.107-.407 2.2593-.6982 3.3266-1.2003 1.0672-.502 2.0713-1.254 2.581-2.3176.49-1.0225.471-2.2025.6306-3.325.1707-1.2008.5537-2.3618.7639-3.5564.21-1.1946.2351-2.4724-.2814-3.5698-.4278-.9087-1.2054-1.6278-2.1-2.0846-.8944-.4569-1.901-.6644-2.9042-.7137-2.0064-.0985-3.9876.4152-5.988.5977-2.6496.2417-5.318-.099-7.9773-.019-3.3083.0996-6.5682.8488-9.8743 1.005-3.7716.1782-7.534-.4175-11.3075-.5514-1.6323-.0579-3.2754-.0286-4.8843.2526-1.609.2811-3.1882.8217-4.5485 1.7256-1.32.8772-2.3968 2.0673-3.6066 3.091-.605.5119-1.2478.9851-1.9538 1.345-.706.3598-1.4788.6045-2.2703.6425-.4072.0197-.8183-.0151-1.2213.0473-.6761.1046-1.3037.4935-1.6983 1.0525-.3945.559-.5508 1.2805-.423 1.9527" filter="url(#G)" opacity=".3" transform="matrix(1 0 0 .9211 159.9998 -43.2547)"/><path fill="url(#H)" d="M-24.7676 113.3622c-1.781.097-3.4846.919-4.7878 2.1367-1.3032 1.2177-2.2214 2.8117-2.7862 4.5035-1.1296 3.3837-.8755 7.0518-.6187 10.6098.2325 3.2216.4704 6.5053 1.6768 9.5016.6032 1.498 1.4502 2.9102 2.5803 4.064 1.1301 1.1536 2.5518 2.0418 4.1183 2.4344 1.4689.368 3.0382.2918 4.4828-.1621 1.4446-.454 2.764-1.2789 3.8463-2.338 1.579-1.545 2.6432-3.5661 3.2534-5.6894.6102-2.1233.7842-4.3515.7524-6.5605-.0397-2.7644-.401-5.5385-1.2658-8.1644-.8648-2.6259-2.2457-5.1033-4.1727-7.0856-.9334-.9601-1.9978-1.8052-3.1986-2.3975-1.2009-.5923-2.5435-.9253-3.8805-.8525" transform="translate(138.9998 -49.3622)"/><path fill="url(#I)" d="M6.75 113.3622c-2.7804 1.9102-5.1106 4.5748-6.25 7.75-1.436 4.0016-.8858 8.4807.5 12.5 1.4195 4.1169 3.7938 8.041 7.3793 10.5123 1.7928 1.2357 3.8681 2.083 6.0304 2.3386 2.1623.2556 4.4093-.0949 6.3403-1.101 2.3531-1.2259 4.1478-3.3727 5.2622-5.7807 1.1143-2.408 1.5888-5.07 1.7378-7.7192.1899-3.3755-.1405-6.8065-1.25-10-1.2053-3.4691-3.39-6.6706-6.4728-8.6666-1.5413-.998-3.2919-1.6836-5.1108-1.9352-1.819-.2516-3.7048-.0633-5.4164.6018-.9755.379-1.8874.9074-2.75 1.5" transform="translate(138.9998 -49.3622)"/><path d="M-25.3606 142.154a71.6406 71.6406 0 0 0-5.136 4.6853c-.9038.9087-1.8091 1.8836-2.2146 3.0994-.3605 1.081-.292 2.2532-.4688 3.379-.0606.3856-.1505.7693-.152 1.1597-.0009.1952.0208.3915.0781.578.0574.1866.1514.3634.2847.506.2218.2371.5382.3658.8564.4306.3182.0648.6449.0725.9677.1074 1.456.1575 2.7982.8634 4.0038 1.6949 1.2056.8315 2.3147 1.8001 3.551 2.5852 2.731 1.7344 5.993 2.5048 9.226 2.6282 3.2328.1233 6.458-.3707 9.6304-1.005 2.5207-.5042 5.0338-1.101 7.4254-2.0436 3.6626-1.4436 6.9636-3.6669 10.1182-6.022 1.433-1.0697 2.846-2.1731 4.1325-3.4152.4367-.4216.8592-.8595 1.3276-1.2455.4684-.386.9881-.7218 1.566-.9077.8807-.2833 1.8356-.202 2.7482-.0495.6873.1149 1.376.269 2.0722.2413.3482-.0139.6967-.0742 1.0201-.2037.3235-.1295.6216-.3303.8433-.599.2914-.3532.44-.8145.4416-1.2723.0016-.4579-.1387-.911-.371-1.3055-.4647-.789-1.2683-1.3231-2.105-1.695-1.1462-.5095-2.3864-.7614-3.6056-1.0558-3.7453-.9042-7.3847-2.2405-10.8358-3.9538-1.7156-.8518-3.3835-1.7956-5.0717-2.7004-1.7356-.9302-3.5046-1.8241-5.389-2.3953-4.2134-1.2772-8.8186-.8583-12.9775.586-4.62 1.6045-8.7975 4.4632-11.9662 8.1884" filter="url(#J)" opacity=".3" transform="translate(138.9998 -49.3622)"/><path fill="url(#K)" d="M-16.3994 136.8622c1.7674-1.9866 2.9762-4.4106 4.6742-6.4568.849-1.0232 1.8284-1.9553 2.9816-2.6168 1.1533-.6615 2.492-1.0411 3.8166-.9264 1.4745.1277 2.8545.8623 3.934 1.8747 1.0796 1.0124 1.8798 2.2903 2.5187 3.6253.6117 1.2783 1.0977 2.6402 1.9791 3.75.9403 1.184 2.2595 1.9922 3.451 2.9229.5959.4653 1.1676.969 1.6385 1.5605.471.5913.8396 1.276.991 2.0166.1537.7521.0771 1.545-.1852 2.2665-.2623.7215-.7067 1.3717-1.2596 1.9043-1.1059 1.0651-2.6136 1.6396-4.1338 1.8547-3.0405.4301-6.1147-.4759-9.1843-.3915-3.1069.0854-6.1415 1.1837-9.2475 1.0701-1.553-.0568-3.128-.4362-4.4043-1.323-.638-.4434-1.194-1.0106-1.5958-1.6756-.4018-.665-.6467-1.429-.6729-2.2055-.025-.741.148-1.4809.4441-2.1606.296-.6796.7127-1.3017 1.1821-1.8755.939-1.1475 2.087-2.1062 3.0725-3.214" transform="translate(138.9998 -49.3622)"/><path fill="#7c7c7c" d="M277.9604 90.8565c-2.2249 1.57-1.2529 3.5305-.296 5.498.9568 1.9673-2.1043 7.6396-2.1366 7.8843-.0322.2446 6.0254-2.8754 7.6762-4.902 1.9495-2.3934 6.877 3.238 6.6085 2.3812.002-1.5332-9.6272-12.4314-11.8521-10.8615z" filter="url(#L)" transform="matrix(1.15221 0 0 1.15221 -163.0272 -72.1996)"/><path fill="#020204" d="M152.1614 72.3948c-1.0455.0749-2.0644.4318-2.9514.9902-.887.5585-1.6433 1.3153-2.237 2.179-1.1875 1.7276-1.709 3.8468-1.793 5.9414-.0631 1.5723.111 3.1651.6325 4.6498.5214 1.4846 1.4008 2.8588 2.6127 3.8625 1.2401 1.0271 2.8165 1.6436 4.4249 1.721 1.6083.0772 3.2394-.3867 4.561-1.3067 1.0529-.7329 1.9021-1.7416 2.5067-2.8731.6045-1.1315.9688-2.3835 1.1353-3.6555.294-2.2468-.0385-4.593-1.077-6.607-1.0384-2.014-2.8005-3.6726-4.9267-4.456-.921-.3393-1.909-.5158-2.888-.4456"/><path fill="#141413" d="M304.6563 137.6122c-.866.3416-2.2366.1267-2.6163.9767-.2249.5035.0927 1.3325.6035 1.5406 1.0324.4206 2.6319-.3411 3.0487-1.3751.181-.4491-.0934-1.161-.5397-1.3487-.1652-.0694-.3296.1407-.4962.2065z" filter="url(#M)" transform="translate(-150.0002 -58.3622)"/><path fill="url(#N)" d="M308.625 139.8622c1.1611-1.1612-.8261-4.2395-2.375-5.5-1.1218-.913-4.3906-1.8685-4.25-.875.1406.9935 1.6099 2.2664 2.5947 3.2374 1.2123 1.1953 3.4788 3.689 4.0303 3.1376z" filter="url(#O)" transform="translate(-150.0002 -58.3622)"/><path fill="url(#Q)" d="M75.25 132.4872c2.3837-1.9802 5.161-3.4848 8.1215-4.4001 6.0856-1.8815 12.9997-1.137 18.3785 2.275 1.857 1.1782 3.5124 2.642 5.2393 4.0037 1.727 1.3618 3.5612 2.6413 5.6357 3.3714 1.1209.3945 2.3182.6234 3.5.5 1.0677-.1116 2.0993-.5118 2.9844-1.1192.8852-.6073 1.6248-1.4185 2.1807-2.3368 1.1117-1.8367 1.47-4.0646 1.2784-6.203-.3833-4.2768-2.7956-8.0534-4.8185-11.841-.6334-1.186-1.2364-2.3933-2-3.5-2.3433-3.3962-6.0731-5.6356-9.985-6.948-3.9118-1.3123-8.0462-1.7863-12.14-2.302-1.8257-.23-3.673-.47-5.5-.25-2.0998.2528-4.076 1.101-6.125 1.625-.9726.2487-1.9637.4248-2.928.7039-.9644.2791-1.913.669-2.697 1.296-1.1448.9158-1.865 2.291-2.1765 3.7235-.3115 1.4325-.2405 2.9244-.0116 4.3724.4578 2.896 1.5409 5.724 1.4381 8.6542-.0706 2.0123-.7023 3.988-.625 6a8.5627 8.5627 0 0 0 .25 1.75" clip-path="url(#P)" transform="translate(59.9998 -58.3622)"/><path fill="url(#R)" d="M16.4063 105.125c-.477.5998-.908 1.2523-1.25 1.9688 2.1464.4624 4.199 1.3457 6.0312 2.5624 3.545 2.3543 6.237 5.7966 8.125 9.625.4408-.488.842-1.0118 1.1875-1.5937-1.8975-3.9878-4.6438-7.5949-8.3125-10.0313-1.7623-1.1703-3.7247-2.0536-5.7813-2.5312z" filter="url(#S)" transform="translate(138.9998 -49.3622)"/><path fill="url(#T)" d="M-24.9687 107.0811c-.2419-.005-.4768.0166-.7188.0284-.1555.007-.3142.0138-.4687.0284 1.413.1284 2.8175.5081 4.0937 1.0814 1.7386.781 3.2737 1.8929 4.625 3.1587 2.5037 2.3453 4.365 5.2397 5.625 8.3094-.3113-2.3649-1.0262-4.604-2.0625-6.659-.4936-.5712-1.0056-1.1288-1.5625-1.6504-1.3513-1.2658-2.8864-2.3778-4.625-3.1587-1.5213-.6834-3.2136-1.1079-4.9062-1.1383z" filter="url(#U)" transform="translate(138.9998 -49.3622)"/><path fill="#020204" d="M109.9387 78.7494c-.372 2.2458-.3856 4.602.3864 6.7435.5098 1.414 1.3504 2.6969 2.3722 3.7993.669.7219 1.4283 1.3778 2.3158 1.8032s1.9158.6064 2.8703.3667c.8812-.2212 1.6516-.7886 2.2202-1.4971.5685-.7086.9476-1.553 1.2177-2.4204.7974-2.5607.6692-5.3616-.1225-7.9242-.5768-1.867-1.532-3.6679-3.0266-4.9268-.713-.6006-1.5477-1.0711-2.4548-1.2866-.907-.2155-1.8887-.165-2.7375.2206-.9423.4282-1.6716 1.243-2.1491 2.1614-.4775.9183-.7229 1.9393-.892 2.9604"/><path fill="url(#V)" d="M164.6875 135.4872c.2419.6337 1.0542.8638 1.5 1.375.433.4965.8873 1.0105 1.125 1.625.4549 1.1761-.4488 2.9193.5 3.75.2978.2607.8947.2664 1.1875 0 1.1454-1.0422.891-3.1444.4375-4.625-.4115-1.3437-1.4275-2.6164-2.6792-3.2551-.5788-.2954-1.4508-.541-1.9458-.12-.319.2714-.2743.8589-.125 1.25z" filter="url(#W)" transform="translate(-50.0002 -58.3622)"/><path fill="url(#X)" d="M45.7517 165.0316c.0614.2954.1725.5804.327.8395.2658.4453.654.8063 1.0733 1.1114.4193.305.8728.5594 1.3119.8354 2.3336 1.467 4.2353 3.529 5.9247 5.7071 2.2665 2.9222 4.2719 6.165 7.2993 8.2889 2.1378 1.4998 4.6957 2.355 7.294 2.616 3.0514.3066 6.14-.186 9.0818-1.052 2.7264-.8027 5.363-1.9296 7.7821-3.4214 4.5985-2.836 8.4393-6.9927 13.51-8.8571 1.107-.407 2.2593-.6982 3.3266-1.2003 1.0672-.502 2.0713-1.254 2.581-2.3176.49-1.0225.471-2.2025.6306-3.325.1707-1.2008.5537-2.3618.7638-3.5564.2101-1.1946.2352-2.4724-.2813-3.5698-.4278-.9088-1.2054-1.6278-2.0999-2.0847-.8945-.457-1.901-.6645-2.9043-.7137-2.0064-.0985-3.9876.4151-5.988.5978-2.6496.242-5.318-.0982-7.9773-.019-3.3083.0986-6.5684.8447-9.8743 1.005-3.7715.183-7.5347-.3985-11.3075-.5514-1.6341-.0662-3.28-.0512-4.8918.2254-1.612.2765-3.1953.8236-4.541 1.7528-1.3115.9055-2.356 2.1402-3.5602 3.184-.6022.522-1.2495.9994-1.9663 1.3475-.7168.348-1.5075.564-2.3042.547-.4096-.009-.8308-.0769-1.2213.0472-.2439.0775-.4604.2271-.6435.406-.183.1789-.3348.387-.4778.5993a10.5209 10.5209 0 0 0-.8674 1.558" transform="translate(59.9998 -58.3622)"/><path fill="#d9b30d" d="M60.5567 169.0974c-.3864 1.596-.152 3.3341.6436 4.7707.7956 1.4366 2.1444 2.5575 3.7023 3.0767 1.9778.6592 4.2066.3364 6.0548-.628 1.0714-.5592 2.0512-1.346 2.6694-2.3843.309-.5192.524-1.0971.6045-1.696.0805-.5988.0247-1.2184-.1849-1.7852-.2297-.621-.6403-1.1685-1.146-1.596-.5058-.4274-1.1047-.7377-1.7335-.9456-1.2575-.4158-2.611-.424-3.9339-.3605a38.8619 38.8619 0 0 0-5.9692.7532" filter="url(#Y)" transform="translate(59.9998 -58.3622)"/><path fill="#604405" d="M54.0663 156.68c-1.339.7914-2.6286 1.6636-3.8975 2.563-.6567.4656-1.3342.969-1.6806 1.6957-.2455.515-.3017 1.099-.3095 1.6694-.0078.5705.0288 1.144-.0462 1.7096-.0513.3862-.1544.7662-.1716 1.1554-.0086.1947.0047.3915.056.5794.0514.188.142.367.2755.5089.1726.1831.408.2959.6487.3693.2407.0734.4906.1112.7356.1687 1.1747.2762 2.197.9968 3.0941 1.8037.8972.8069 1.703 1.7149 2.6389 2.4765 2.5373 2.0644 5.8905 2.9187 9.161 2.9725 3.2707.0538 6.5043-.6307 9.6954-1.3495 2.5063-.5645 5.015-1.1547 7.4254-2.0435 3.7028-1.3654 7.1408-3.4317 10.1182-6.022 1.35-1.1744 2.6172-2.4636 4.1325-3.4152 1.341-.8421 2.8427-1.398 4.2064-2.2027.1219-.072.2432-.1462.352-.2366.109-.0905.2058-.1981.269-.3248.1092-.219.1094-.4812.039-.7155-.0705-.2343-.2064-.444-.36-.6343-.17-.2106-.3635-.4016-.569-.5775-1.4244-1.2192-3.3568-1.6625-5.2259-1.8107-1.869-.1482-3.7606-.0434-5.61-.3524-1.7386-.2905-3.3932-.9388-5.0717-1.4773-1.7619-.5653-3.5627-1.0125-5.389-1.3104-4.2947-.7007-8.7173-.5664-12.9775.3206-4.0577.8449-7.9713 2.3706-11.5392 4.4796" filter="url(#Z)" transform="translate(59.9998 -58.3622)"/><path fill="url(#aa)" d="M53.6394 152.154a23.7558 23.7558 0 0 0-5.136 4.6853c-.8407 1.0308-1.6037 2.1508-2.0271 3.4119-.333.9918-.4465 2.0415-.6563 3.0665-.0786.384-.1714.7692-.1698 1.1612.0009.196.0257.3928.0865.579.0608.1864.1583.3621.294.5034.2247.234.5405.361.8582.4264.3177.0653.6438.075.966.1117 1.4547.1654 2.7945.872 4.0004 1.7022 1.2058.8302 2.317 1.7954 3.5544 2.578 2.7339 1.729 5.9945 2.4982 9.2269 2.6228 3.2323.1246 6.4573-.3664 9.6295-.9998 2.5209-.5033 5.0339-1.1007 7.4254-2.0435 3.6624-1.444 6.9635-3.667 10.1182-6.022 1.433-1.0697 2.846-2.1731 4.1325-3.4152.4367-.4216.8592-.8595 1.3276-1.2455.4684-.386.9881-.7218 1.566-.9077.8807-.2833 1.8356-.202 2.7481-.0495.6874.1149 1.376.269 2.0723.2413.3482-.0139.6966-.0742 1.0201-.2037.3234-.1295.6215-.3303.8433-.599.2914-.3532.44-.8145.4416-1.2723.002-.4579-.1387-.911-.371-1.3055-.4648-.789-1.2683-1.3231-2.105-1.695-1.1462-.5095-2.3864-.7614-3.6056-1.0558-3.7453-.9042-7.3848-2.2405-10.8358-3.9538-1.7156-.8518-3.3835-1.7956-5.0717-2.7004-1.7356-.9302-3.5046-1.8241-5.389-2.3954-4.2134-1.277-8.8186-.8582-12.9775.5861-4.62 1.6045-8.7975 4.4632-11.9662 8.1884" transform="translate(59.9998 -58.3622)"/><path fill="#f6da4a" d="M83.2385 153.0799c-.2265-.2862-.5511-.488-.9013-.591-.3501-.103-.7246-.1104-1.0844-.0488-.7195.1232-1.3645.5105-1.9657.9245-1.7086 1.1764-3.2189 2.6282-4.5374 4.2297-1.7452 2.12-3.185 4.5717-3.6675 7.275-.0813.4554-.1351.9212-.0782 1.3804.0569.4592.2328.9148.5587 1.2432.2862.2884.6757.4643 1.0778.522.4022.0578.816.002 1.2008-.1283.7697-.2602 1.409-.7994 2.0144-1.3413 3.336-2.9855 6.3526-6.5677 7.5596-10.8788.1211-.4326.224-.8756.2212-1.3249-.0028-.4492-.1192-.9094-.398-1.2617" filter="url(#ab)" transform="translate(59.9998 -58.3622)"/><path fill="url(#ac)" d="M75.2513 146.8898c.2313.7424 1.4278.6194 2.119.9755.6067.3124 1.0945.9972 1.7766 1.0169.6509.0188 1.664-.2254 1.7486-.8711.1119-.853-1.1338-1.3951-1.9353-1.7076-1.0315-.4022-2.353-.6062-3.3206-.0682-.2218.1233-.4638.4124-.3883.6546z" filter="url(#ad)" opacity=".8" transform="translate(59.9998 -58.3622)"/><path fill="url(#ae)" d="M63.8271 146.47c-.8882-.2885-2.3575 1.2775-1.878 2.0789.1316.22.5349.4991.8064.3499.4092-.225.744-1.0296 1.1874-1.345.296-.2105.2298-.9715-.1158-1.0838z" filter="url(#af)" opacity=".8" transform="translate(59.9998 -58.3622)"/><path fill="url(#ag)" stroke-width=".25" d="M245.905 158.284c0 1.2859-1.1677 2.3282-2.6081 2.3282s-2.6081-1.0423-2.6081-2.3281 1.1677-2.3282 2.608-2.3282c1.4405 0 2.6082 1.0424 2.6082 2.3282z" color="#000" transform="matrix(1.09562 0 -.17018 1.51813 -76.2445 -140.4796)" style="marker:none" filter="url(#ah)" overflow="visible"/><path fill="url(#aj)" d="M50.392 129.5272c2.6854-1.5994 5.9551-1.9704 9.0668-1.6757 3.1116.2947 6.1254 1.2085 9.1413 2.0292 2.2116.602 4.4516 1.1615 6.5253 2.1378 2.0738.9763 3.9999 2.4157 5.142 4.403.1831.3187.3452.6497.5392.962.194.3123.4231.6086.7165.8303.2933.2216.657.3643 1.024.3442.1836-.01.3657-.0609.5242-.1539.1586-.093.293-.2287.378-.3916.0978-.1874.1281-.4045.1172-.6156-.011-.211-.0613-.418-.1172-.6219-.7552-2.753-2.535-5.0883-3.889-7.6014-.8127-1.508-1.477-3.0927-2.2982-4.5962-2.8183-5.1602-7.4436-9.2156-12.7014-11.8473-5.2578-2.6317-11.1274-3.8961-16.997-4.2394-6.8012-.3976-13.6198.4095-20.3294 1.591-2.9086.5122-5.8608 1.1151-8.4357 2.5616-1.2874.7232-2.4674 1.6566-3.3884 2.8109-.921 1.1542-1.5765 2.5352-1.7877 3.9967-.2035 1.4085.0088 2.8606.5013 4.1958.4925 1.3353 1.2583 2.5585 2.1566 3.6624 1.7965 2.2077 4.1006 3.9336 6.2224 5.8309 2.1213 1.8969 4.09 3.992 6.463 5.5628 1.1864.7854 2.4726 1.435 3.8433 1.8167 1.3707.3816 2.83.4891 4.2239.2036 1.445-.2961 2.7826-1.005 3.9536-1.902 1.171-.897 2.1861-1.98 3.1484-3.098 1.9246-2.2357 3.7225-4.6864 6.257-6.196" clip-path="url(#ai)" transform="translate(59.9998 -58.3622)"/><path fill="#020204" d="M205.1013 167.0873c6.0848 4.8947 9.9456 12.286 11.141 20.003.9323 6.0187.3263 12.195-1.0307 18.1323-1.357 5.9373-3.4522 11.6762-5.5317 17.4005-.8292 2.2827-1.6622 4.5871-1.9917 6.9933-.3295 2.4062-.1208 4.9543 1.0395 7.0878 1.3303 2.4458 3.813 4.1302 6.4819 4.923 2.635.7825 5.481.766 8.1482.1014 2.6671-.6646 5.1573-1.9634 7.3283-3.6493 5.5156-4.283 8.8436-10.9487 10.132-17.812 1.2882-6.8635.6963-13.9504-.5016-20.8302-1.6334-9.3814-4.3817-18.551-7.8799-27.4077-2.5731-6.5147-5.5841-12.9201-9.7913-18.5202-4.117-5.48-9.3069-10.093-13.3402-15.635-2.8026-3.851-5.0477-8.1495-8.4064-11.5264-1.6793-1.6885-3.6404-3.1323-5.8602-3.9946-2.2198-.8622-4.7127-1.1162-7.005-.471-3.0215.8503-5.4898 3.231-6.803 6.082-1.313 2.851-1.5428 6.1232-1.0319 9.2201.6591 3.9954 2.4863 7.7026 4.5464 11.1888 2.3267 3.9372 5.022 7.727 8.536 10.654 3.6671 3.0546 8.1015 5.0688 11.8203 8.0602"/><path fill="#838384" d="M290.7813 216.0184c.4848.4678.9809.9426 1.5 1.375 3.6671 3.0546 5.6187 6.4853 9.3376 9.4767 6.0848 4.8947 12.259 13.3436 13.4543 21.0607.9323 6.0186-.301 9.2895-1.8047 16.3878-1.5037 7.0983-5.7694 17.1483-8.0737 23.9921-.919 2.7291 1.8612 1.603 1.496 4.4798-.1794 1.4138-.1976 2.8424-.0345 4.2592.0227-.271.0388-.5525.0693-.822.4428-3.9227 1.6233-7.6948 2.9087-11.3951 2.4742-7.1221 5.3144-14.101 7.272-21.408 1.9576-7.3068 1.7403-12.5644.7188-18.8437-1.2846-7.8963-5.797-15.187-12.1875-20-4.5186-3.4031-9.847-5.5846-14.6563-8.5625z" clip-path="url(#ak)" filter="url(#al)" transform="matrix(1.01807 0 0 1 -105.2555 -58.3622)"/><path fill="url(#am)" d="M-61.0027 211.593c.88 1.524-.5473 6.7784 19.9638 3.4154 0 0-3.602.4573-7.1528 1.4042-5.5212 2.1334-10.3302 4.517-14.0402 7.6752-3.6755 3.1217-6.367 7.197-9.7397 10.697 0 0 5.4617-11.5186 6.8233-14.9874 1.3616-3.4687-.228-3.31.849-8.4136 1.0768-5.1036 3.7134-10.007 3.7134-10.007s-2.1524 7.211-.4168 10.2163z" filter="url(#an)" opacity=".25" transform="matrix(1.1543 0 0 1 166.3323 -58.3622)"/><path fill="url(#ao)" d="M33.05 201.218c-4.825 3.3615-7.6523 2.9635-13.5068 3.621-5.8544.6574-21.6983.4194-21.6983.4194s2.2937-.0427 7.3776.9042c5.0838.9469 15.453 1.8523 21.2917 4.0746 5.8387 2.2224 7.9685 2.8566 11.5172 5.1006 5.0511 3.1939 8.7582 8.197 13.587 11.697 0 0 .2338-4.6436-1.7156-8.1124-1.9495-3.4687-7.1904-8.935-8.7322-14.0386-1.5419-5.1036-2.2743-15.132-2.2743-15.132s-1.0211 8.1049-5.8462 11.4663z" filter="url(#ap)" opacity=".42" transform="translate(138.9998 -49.3622)"/><path fill="url(#aq)" d="M-12.3301 194.0401a60.304 60.304 0 0 1-.697 4.3443c-.1405.7094-.2949 1.42-.559 2.093-.2641.6733-.6442 1.3122-1.1812 1.7965-.4708.4244-1.0444.716-1.6207.9797a24.3631 24.3631 0 0 1-7.108 2.019c.98.072 1.9585.1613 2.9353.2682.6153.0674 1.232.1421 1.8316.2959.5997.1538 1.1848.3895 1.6843.7552.5478.401.978.9483 1.2993 1.5463.6402 1.1916.8543 2.5628.9727 3.9103a31.9533 31.9533 0 0 1 .033 5.1842 16.0138 16.0138 0 0 1 .72-3.398c.6528-1.986 1.7042-3.8478 3.1197-5.3864.5618-.6105 1.1804-1.1703 1.8588-1.6479 2.0782-1.463 4.718-2.1055 7.2361-1.7613-2.559.113-5.149-.6909-7.1942-2.233-1.0416-.7854-1.9487-1.7629-2.5797-2.9046-.9758-1.7657-1.2501-3.9068-.751-5.8614" filter="url(#ar)" opacity=".2" transform="translate(138.9998 -49.3622)"/><path style="marker:none" stroke-width="2" d="M-18.5 228.081a88.7094 88.7094 0 0 0-2.5257 14.2766c-.637 6.8121-.4836 13.6725-.8493 20.5046-.3103 5.7975-.991 11.6558.0159 17.3737a29.8448 29.8448 0 0 0 2.5546 7.8746c.1925-.95.3335-1.9105.4223-2.8758.4267-4.636-.354-9.2869-.6178-13.935-.4622-8.1475.6657-16.29 1.125-24.4375a149.282 149.282 0 0 0-.125-18.7813" color="#000" filter="url(#as)" opacity=".11" overflow="visible" transform="translate(138.9998 -49.3622)"/><path fill="#838384" d="M37.6875 157.8622c-2.1622 1.9693 1.0136 4.9276 2.5197 8.4043.9362 2.1612 3.5267 5.205 6.0324 4.7175 1.8848-.3668 3.0543-3.0794 2.8759-4.9912-.3442-3.6886-3.4567-4.5526-5.7172-5.8195-1.7914-1.004-4.1926-3.694-5.7108-2.3111z" filter="url(#at)" transform="translate(138.9998 -49.3622)"/><g><path fill="url(#au)" d="M86.0562 328.132c-.4567 1.5491-1.1522 3.0458-2.0496 4.4108-1.9805 3.0124-4.8545 5.2794-7.7268 7.3701-4.899 3.566-10.0028 6.8379-14.5632 10.8903-3.0555 2.7152-5.8411 5.7594-8.4228 8.965-2.2079 2.7414-4.2839 5.6192-6.8009 8.0572-2.5396 2.46-5.5305 4.4468-8.7519 5.5294-3.918 1.3166-8.058 1.2533-11.8323.2594-2.6447-.6965-5.2236-1.907-6.8622-4.097-1.6448-2.1982-2.1777-5.1521-2.368-8.0518-.3365-5.1288.2597-10.3696.8034-15.5755.4517-4.3257.8683-8.6547 1.0386-12.9717.3098-7.852-.1967-15.6358-1.2319-23.2733-.1733-1.2791-.362-2.5682-.2565-3.8856.1051-1.3175.5354-2.6883 1.4361-3.7053.832-.9394 1.9928-1.4957 3.1507-1.769 1.158-.2732 2.3298-.2898 3.4927-.3215 2.7402-.0747 5.4965-.2403 8.1952.006 1.7028.1556 3.3727.4746 5.0732.6427 2.8376.2806 5.7813.1329 8.6273-.7236 3.0641-.9222 5.9864-2.6516 9.0995-3.1275 1.2773-.1952 2.559-.1725 3.801.006 1.2675.1822 2.5284.5418 3.5024 1.336.7402.6036 1.282 1.4328 1.7058 2.3166.6314 1.3165 1.0192 2.7703 1.2412 4.2613.1966 1.3208.2663 2.6801.5978 3.9573.5454 2.1013 1.781 3.8865 3.2674 5.3397 1.4865 1.4531 3.225 2.6024 4.9606 3.734 1.729 1.1275 3.468 2.247 5.3147 3.1764.8668.4362 1.7575.8307 2.5861 1.333.8286.5024 1.6007 1.1211 2.151 1.9355.7463 1.1048 1.0456 2.5528.8216 3.9748" filter="url(#av)" opacity=".2" transform="matrix(1.02688 0 0 1 157.6864 -58.3622)"/><path fill="url(#ax)" d="M516.0056 331.8756a16.9326 16.9326 0 0 1-2.8158 4.7382c-2.6238 3.1149-6.268 5.1704-9.8964 7.0199-6.1886 3.1544-12.6017 5.9218-18.4197 9.7165-3.898 2.5425-7.4959 5.5268-10.8601 8.7424-2.8772 2.7501-5.6059 5.6875-8.8325 8.0177-3.2557 2.3513-7.0192 4.0543-10.9906 4.6502-4.8303.7248-9.8214-.2129-14.299-2.1641-3.1376-1.3673-6.1557-3.323-7.963-6.2293-1.8143-2.9176-2.228-6.4882-2.2327-9.9238-.008-6.0766 1.1183-12.09 2.1785-18.0735.881-4.9717 1.7195-9.9548 2.2601-14.975.9834-9.1312.9763-18.3528.32-27.5133-.11-1.5341-.2376-3.0832-.008-4.604.2292-1.521.8547-3.0368 2.0206-4.04 1.077-.9265 2.521-1.336 3.9395-1.4144 1.4185-.0785 2.834.1465 4.2398.352 3.3125.484 6.6516.8648 9.8892 1.7165 2.0428.5374 4.0331 1.2592 6.0722 1.8108 3.4026.9204 6.9664 1.3614 10.4674.952 3.7691-.441 7.4298-1.8569 11.2236-1.7648 1.5566.0378 3.1015.3317 4.5865.7998 1.5154.4777 3.0091 1.1618 4.1228 2.2951.8464.8613 1.4358 1.9454 1.8787 3.0688.6598 1.6736 1.015 3.457 1.167 5.2495.1348 1.5879.1135 3.1944.4144 4.7593.495 2.5746 1.8474 4.923 3.5285 6.935 1.681 2.0118 3.6898 3.7204 5.6964 5.4078 1.999 1.681 4.0106 3.3547 6.167 4.8284 1.0122.6916 2.0565 1.3395 3.0174 2.1006.961.7611 1.8447 1.6468 2.4454 2.7153.815 1.4495 1.0638 3.2077.6831 4.8264" clip-path="url(#aw)" transform="translate(-250.0002 -58.3622)"/><path fill="#cd8907" d="M512.8913 328.7244a15.312 15.312 0 0 1-2.5715 4.2598c-2.4025 2.814-5.7292 4.6544-9.0377 6.311-5.653 2.8304-11.5028 5.3175-16.8213 8.7353-3.5537 2.2836-6.8408 4.9657-9.9178 7.8596-2.6292 2.4728-5.125 5.116-8.0661 7.2081-2.981 2.1204-6.418 3.6468-10.037 4.1806-4.4093.6505-8.9601-.1931-13.0582-1.9456-2.8572-1.2218-5.6173-2.97-7.272-5.6003-1.6463-2.6168-2.0313-5.83-2.039-8.9216-.0134-5.4647 1.0183-10.8708 1.9895-16.2485.807-4.4687 1.5753-8.9482 2.064-13.4629.8886-8.2082.8481-16.4975.2922-24.735-.0931-1.3801-.2003-2.7738.0118-4.1407.212-1.367.778-2.7274 1.826-3.6304.9827-.8469 2.303-1.218 3.5985-1.286 1.2956-.068 2.5875.1419 3.871.3308 3.0231.4449 6.0724.7791 9.031 1.5432 1.8654.4817 3.6838 1.1316 5.5453 1.628 3.1095.829 6.3623 1.2248 9.5592.8557 3.4412-.3972 6.7866-1.6714 10.2497-1.5865 1.4206.0348 2.8305.3004 4.1885.719 1.3818.4261 2.749 1.0345 3.765 2.0634.7657.7754 1.2954 1.7536 1.7158 2.759.6257 1.4967 1.0325 3.0974 1.0657 4.7193.0347 1.6938-.3355 3.395-.106 5.0734.1865 1.3626.7636 2.648 1.5007 3.8091.7372 1.1611 1.634 2.211 2.5225 3.2607 1.7173 2.029 3.4393 4.0967 5.5931 5.6546 2.4522 1.7736 5.362 2.8114 7.8951 4.4673.7551.4936 1.486 1.0521 2.0182 1.7806.8972 1.228 1.1387 2.9079.6237 4.339" clip-path="url(#ay)" filter="url(#az)" transform="translate(-250.0002 -58.3622)"/><path fill="#f5c021" d="M508.7928 327.9255a14.9442 14.9442 0 0 1-2.3113 3.4913c-2.1533 2.4277-5.061 4.0991-8.1235 5.1725-5.0416 1.767-10.5456 2.0044-15.4947 4.0162-3.0161 1.226-5.7306 3.0734-8.4791 4.8187-2.2218 1.4108-4.4925 2.7688-6.932 3.7562-2.7556 1.1152-5.6858 1.7405-8.626 2.1786-1.8707.2787-3.7625.4842-5.6515.387-1.889-.0972-3.7841-.5073-5.4512-1.401-1.264-.6774-2.4013-1.6528-3.076-2.9183-.7496-1.406-.8796-3.056-.8624-4.6492.0457-4.2459 1.0255-8.4458.9961-12.6918-.0256-3.6962-.8152-7.345-1.0423-11.0342-.4366-7.0946 1.2047-14.3132-.2399-21.2729-.2312-1.1141-.542-2.2269-.527-3.3646.008-.569.0988-1.141.3154-1.6671.2167-.5261.563-1.0051 1.0247-1.3375.3887-.28.8504-.4503 1.3233-.5268.473-.0765.9575-.0616 1.4317.007.9483.1366 1.8519.4822 2.7754.7372 2.642.7295 5.4326.7143 8.1175 1.2648 1.6853.3456 3.3168.9115 4.9844 1.3343 2.8003.71 5.7201 1.0133 8.592.7014 3.0886-.3354 6.1072-1.3753 9.213-1.3003 1.273.0307 2.5374.25 3.7648.5893 1.2277.3394 2.4554.8195 3.3842 1.6912.6693.628 1.1513 1.4307 1.5421 2.2612.5703 1.212.9673 2.5285.958 3.868-.005.6968-.119 1.3876-.1867 2.081-.0677.6936-.0878 1.4038.0914 2.0771.18.6766.5541 1.2867.9827 1.8404.4285.5536.9147 1.06 1.3581 1.6017 1.242 1.5172 2.1297 3.2855 3.0973 4.9907.9676 1.7052 2.0523 3.3927 3.5803 4.6212 2.0797 1.672 4.778 2.3401 7.0965 3.6614.6787.3868 1.3367.8408 1.814 1.4593a3.7685 3.7685 0 0 1 .735 1.7065 3.7682 3.7682 0 0 1-.1744 1.8498h.0001" clip-path="url(#aA)" filter="url(#aB)" transform="matrix(1.14297 0 0 1.2323 -318.9982 -135.4884)"/><path fill="url(#aC)" d="M27.3093 290.6497c3.276-.887 6.0662 1.5972 8.4423 3.4724 1.5352 1.3092 3.7534.9799 5.6366 1.042 3.1207-.1131 6.2254.5229 9.347.1358 6.1447-.5193 12.1686-2.0296 18.3424-2.2898 2.9495-.1858 6.26-.3572 8.8082 1.3652 1.033.7155 2.547 3.7414 3.5664 2.6049-.4203-3.1782-2.7774-6.256-5.939-7.1023-2.475-.3894-4.9899.2914-7.4895.0711-7.423-.177-14.7934-1.5554-22.234-1.1601-5.1764.0448-10.3465-.195-15.5154-.3966-2.0306-.415-2.7467 1.389-3.849 2.0808" filter="url(#aD)" transform="translate(159.9998 -58.3622)"/></g><path fill="#7c7c7c" d="M361.75 209.343c.002-1.5332-7.5647-10.0564-9.7896-8.4865-2.2249 1.57-.4917 3.7842-.296 5.498.1956 1.7136-.9454 6.6093.2384 7.2593 1.184.65 3.3661-2.5198 5.3012-4.277 1.5581-1.415 4.544 1.5393 4.546.006z" filter="url(#aE)" opacity=".75" transform="matrix(-.09596 -.957 -.77476 .11853 398.9019 493.2445)"/><path fill="#7c7c7c" d="M351.9604 200.8565c-1.4516.3889-1.23 3.9942-.296 5.498.7888 1.27 3.0723 2.271 3.7585 1.005 1.1141-2.0557-1.472-7.0362-3.4625-6.503z" filter="url(#aF)" opacity=".25" transform="matrix(-.06992 .957 -.5645 -.11853 236.5676 -180.3793)"/><g><path fill="url(#aG)" d="M71.4837 295.6401c-.5626-1.102-1.587-1.9258-2.7288-2.4025-1.1418-.4766-2.3969-.6289-3.6342-.6193-2.4745.019-4.9345.6635-7.4.4503-2.0825-.1802-4.0587-.963-6.0898-1.4574-2.0972-.5105-4.3218-.7097-6.4046-.143-2.226.6057-4.1894 2.0936-5.4192 4.0454-1.0842 1.721-1.599 3.7527-1.761 5.7803-.1621 2.0275.0129 4.0658.218 6.0894.1485 1.4636.3136 2.9308.6677 4.3587.3541 1.4278.9042 2.8228 1.766 4.015 1.2408 1.7163 3.0835 2.9395 5.0695 3.675 3.2418 1.2005 6.9338 1.136 10.1316-.1772 5.6589-2.457 10.4493-6.8639 13.3688-12.2986 1.0454-1.946 1.8574-4.0193 2.382-6.1651.2084-.8528.372-1.7224.3797-2.6003.0076-.8779-.1466-1.7687-.5457-2.5507" filter="url(#aH)" opacity=".35" transform="translate(159.9998 -58.3622)"/><path fill="url(#aI)" d="M71.4837 295.6401c-.5626-1.102-1.587-1.9258-2.7288-2.4025-1.1418-.4766-2.3969-.6289-3.6342-.6193-2.4745.019-4.9345.6635-7.4.4503-2.0825-.1802-4.0587-.963-6.0898-1.4574-2.0972-.5105-4.3218-.7097-6.4046-.143-2.226.6057-4.1894 2.0936-5.4192 4.0454-1.0842 1.721-1.599 3.7527-1.761 5.7803-.1621 2.0275.0129 4.0658.218 6.0894.1485 1.4636.3136 2.9308.6677 4.3587.3541 1.4278.9042 2.8228 1.766 4.015 1.2408 1.7163 3.0835 2.9395 5.0695 3.675 3.2418 1.2005 6.9338 1.136 10.1316-.1772 5.6589-2.457 10.4493-6.8639 13.3688-12.2986 1.0454-1.946 1.8574-4.0193 2.382-6.1651.2084-.8528.372-1.7224.3797-2.6003.0076-.8779-.1466-1.7687-.5457-2.5507" filter="url(#aJ)" opacity=".35" transform="matrix(1 0 0 .72293 159.9998 22.3963)"/></g><g><path fill="#020204" d="M236.1873 226.9656c-.4051-1.1037-1.1184-2.0816-1.9907-2.8699-.8722-.7883-1.9004-1.3923-2.9827-1.8516-2.1646-.9185-4.5206-1.2614-6.8316-1.6955-2.1791-.4093-4.3417-.9063-6.5278-1.2774-2.2713-.3855-4.6179-.632-6.8653-.1253-1.9658.4434-3.7845 1.4588-5.2717 2.8187-1.4872 1.3598-2.6491 3.0564-3.485 4.89-1.4722 3.2296-1.9345 6.865-1.654 10.4032.2089 2.6333.8754 5.346 2.6088 7.3391 1.4007 1.6106 3.3874 2.6153 5.434 3.221 3.525 1.0431 7.3667.9882 10.8604-.1553 5.7669-1.9312 10.8757-5.774 14.3303-10.779 1.1387-1.6497 2.1122-3.4482 2.5532-5.4035.336-1.4895.3484-3.081-.1779-4.5145"/><path fill="url(#aL)" d="M362.2188 276.456a13.4803 13.4803 0 0 0-1.625.1874c-3.4696.6169-6.6471 2.8086-8.4375 5.8438-1.264 2.1427-1.8399 4.6763-1.6563 7.1562.0732-1.7416.5295-3.4468 1.375-4.9687 1.4344-2.5819 4.0324-4.5298 6.9375-5.0625 1.7898-.3282 3.6318-.131 5.4375.0937 1.7326.2156 3.4811.4429 5.1875.8125 2.641.572 5.2543 1.4513 7.4688 3 .5164.3612.9995.7686 1.4062 1.25.4067.4814.7219 1.0379.8438 1.6562.1782.9043-.0794 1.853-.5313 2.6563-.4519.8033-1.065 1.5066-1.7188 2.1562-.5292.5258-1.0948 1.0342-1.6562 1.5313 2.559-.4957 5.152-1.1977 7.2813-2.6875.8997-.6296 1.7152-1.3847 2.25-2.3438.5347-.959.7624-2.1212.5-3.1875-.1772-.7197-.5714-1.3824-1.0625-1.9375-.4912-.555-1.0805-1.0121-1.6875-1.4375-2.6788-1.877-5.815-3.0785-9.0625-3.4687a110.8366 110.8366 0 0 0-6.2813-.9688c-1.6434-.2056-3.3208-.3731-4.9688-.2812z" clip-path="url(#aK)" filter="url(#aM)" transform="translate(-150.0002 -58.3622)"/><path fill="url(#aO)" d="M362.2188 276.456a13.4803 13.4803 0 0 0-1.625.1874c-3.4696.6169-6.6471 2.8086-8.4375 5.8438-1.264 2.1427-1.8399 4.6763-1.6563 7.1562.0732-1.7416.5295-3.4468 1.375-4.9687 1.4344-2.5819 4.0324-4.5298 6.9375-5.0625 1.7898-.3282 3.6318-.131 5.4375.0937 1.7326.2156 3.4811.4429 5.1875.8125 2.641.572 5.2543 1.4513 7.4688 3 .5164.3612.9995.7686 1.4062 1.25.4067.4814.7219 1.0379.8438 1.6562.1782.9043-.0794 1.853-.5313 2.6563-.4519.8033-1.065 1.5066-1.7188 2.1562-.5292.5258-1.0948 1.0342-1.6562 1.5313 2.559-.4957 5.152-1.1977 7.2813-2.6875.8997-.6296 1.7152-1.3847 2.25-2.3438.5347-.959.7624-2.1212.5-3.1875-.1772-.7197-.5714-1.3824-1.0625-1.9375-.4912-.555-1.0805-1.0121-1.6875-1.4375-2.6788-1.877-5.815-3.0785-9.0625-3.4687a110.8366 110.8366 0 0 0-6.2813-.9688c-1.6434-.2056-3.3208-.3731-4.9688-.2812z" clip-path="url(#aN)" filter="url(#aP)" transform="translate(-150.0002 -58.3622)"/></g><g><path fill="#020204" d="M98.498 126.0625a4291.3926 4291.3926 0 0 0-8.3344 10.4345c-2.857 3.5882-5.7082 7.181-8.5873 10.7513-3.5327 4.3808-7.1492 8.7943-9.4492 13.9305-1.9762 4.4133-2.9107 9.2072-4.265 13.8493-1.5378 5.2718-3.626 10.3703-5.9706 15.3361-2.165 4.5853-4.5499 9.063-6.939 13.5356-1.7382 3.254-3.5051 6.581-4.1078 10.2207-.4763 2.8763-.1985 5.8442.5338 8.6662.7322 2.822 1.9096 5.5106 3.2377 8.106 5.6673 11.075 14.17 20.6217 24.2418 27.9248 4.5706 3.3141 9.4667 6.181 14.6024 8.526 2.7825 1.2703 5.7136 2.4043 8.7719 2.4574 1.5292.0265 3.0741-.2255 4.4743-.8406 1.4003-.615 2.6507-1.6037 3.4826-2.887 1.0228-1.578 1.3699-3.5384 1.1646-5.4075-.2053-1.8692-.9348-3.653-1.9132-5.2587-2.39-3.9226-6.1652-6.7606-9.7965-9.5735-7.8405-6.0736-15.4246-12.4804-22.682-19.24-2.0492-1.9085-4.0985-3.8775-5.5303-6.284-1.3943-2.3436-2.1476-5.0138-2.6578-7.6926-1.3997-7.3487-1.041-15.0828 1.4596-22.1334.9782-2.7583 2.2712-5.392 3.5181-8.0397 2.1614-4.589 4.2073-9.2656 7.0494-13.4672 3.538-5.2304 8.2674-9.6605 11.1514-15.278 2.4343-4.7415 3.42-10.0724 4.3619-15.3183a2835.276 2835.276 0 0 0 2.1836-12.3179"/><path fill="#7c7c7c" d="M232.3305 224.2695a33.0008 33.0008 0 0 0-5.9534 7.3183c-2.668 4.4585-4.239 9.4683-6.178 14.2888-1.4437 3.5888-3.1253 7.1931-3.3267 11.0562-.1035 1.9842.1906 3.9659.2567 5.9517.0662 1.9857-.1175 4.051-1.0897 5.7839-.8133 1.4498-2.1659 2.589-3.733 3.144 2.1155.7068 4.0046 2.0754 5.3354 3.8654 1.1145 1.499 1.8276 3.2536 2.796 4.8509.7872 1.2982 1.7534 2.5012 2.943 3.4446 1.1894.9434 2.6113 1.6198 4.1172 1.813 2.0662.265 4.2357-.4282 5.7654-1.8423-1.9254-18.0357-.162-36.4572 5.1501-53.8.3355-1.0952.6873-2.1984.7704-3.3407.083-1.1424-.129-2.348-.8242-3.2582a3.5438 3.5438 0 0 0-1.4302-1.1078 3.5437 3.5437 0 0 0-1.7913-.2524 3.5432 3.5432 0 0 0-1.6806.6696 3.5438 3.5438 0 0 0-1.127 1.415h-.0001" clip-path="url(#aQ)" filter="url(#aR)" opacity=".95" transform="translate(-150.0002 -58.3622)"/></g><g clip-path="url(#aS)" transform="translate(-80.0002 -58.3622)"><path fill="url(#aT)" d="M137.577 281.0191c1.5993-.663 3.3982-.7836 5.1008-.4696 1.7025.314 3.3114 1.0494 4.7434 2.0224 2.864 1.9458 4.9882 4.7777 7.0226 7.5795 4.672 6.434 9.1687 13.0022 13.2449 19.8293 3.3064 5.5376 6.3435 11.2568 10.1641 16.453 2.494 3.392 5.3067 6.5395 7.813 9.9222 2.5064 3.3828 4.728 7.0559 5.8394 11.1166 1.444 5.2766.8846 11.093-1.6267 15.953-1.7666 3.419-4.4765 6.3523-7.7724 8.339-3.296 1.9867-7.1707 3.0145-11.0164 2.8703-6.1141-.2293-11.6994-3.2852-17.3836-5.5491-11.581-4.6125-24.1598-6.0594-36.0966-9.6517-3.6686-1.104-7.2759-2.4107-10.97-3.4263-1.6412-.4513-3.3086-.8482-4.8587-1.5515-1.55-.7032-2.9995-1.749-3.8617-3.2167-.6664-1.1344-.9484-2.47-.9302-3.7856.0182-1.3155.326-2.6145.7738-3.8515.8959-2.4741 2.3433-4.7138 3.3202-7.157 1.5951-3.9894 1.8817-8.3884 1.6666-12.6794-.2151-4.291-.9108-8.5448-1.2046-12.8312-.1311-1.914-.1806-3.8525.1848-5.736.3655-1.8834 1.1758-3.7245 2.5577-5.0554 1.274-1.2269 2.965-1.9553 4.6965-2.3165 1.7315-.3612 3.5153-.3774 5.2836-.3376 1.7684.04 3.5407.1343 5.3035-.0106 1.7629-.1449 3.5335-.5405 5.0692-1.4183 1.46-.8344 2.6543-2.0745 3.6437-3.4342.9894-1.3598 1.789-2.8457 2.6089-4.314.8198-1.4682 1.6683-2.9315 2.7416-4.226 1.0732-1.2947 2.3892-2.4231 3.9426-3.067"/><path fill="#d99a03" d="M140.1097 283.7788c1.4551-.5861 3.0942-.6506 4.6227-.304 1.5285.3466 2.9495 1.0901 4.1883 2.047 2.4776 1.9137 4.1999 4.6138 5.8542 7.2686 3.9701 6.433 7.8514 12.9338 11.5161 19.5672 2.777 4.9932 5.4247 10.0925 8.8375 14.6789 2.2638 3.0415 4.8474 5.8314 7.1579 8.8367 2.3105 3.0054 4.3712 6.2822 5.3928 9.9335 1.3162 4.7058.7826 9.91-1.4954 14.2328-1.6376 3.1058-4.152 5.7465-7.1861 7.5126-3.034 1.7662-6.5793 2.6493-10.0866 2.488-5.5983-.2578-10.7113-3.0536-15.9809-4.9508-10.103-3.6657-21.0534-4.1575-31.4161-7.02-3.7148-1.0083-7.3366-2.3527-11.0696-3.294-1.6516-.4165-3.333-.757-4.9021-1.4193-1.5692-.6621-3.0468-1.6886-3.8975-3.1647-.6329-1.0972-.8857-2.3884-.8466-3.6542.0391-1.2658.3592-2.5103.81-3.6939.9015-2.367 2.3202-4.5102 3.229-6.8746 1.3788-3.5742 1.55-7.5041 1.294-11.3262-.256-3.822-.921-7.6095-1.1532-11.4336-.1037-1.709-.1193-3.439.2263-5.1157.3457-1.6768 1.0761-3.3097 2.2949-4.512 1.3209-1.309 3.1412-2.0242 4.9773-2.3043 1.836-.2801 3.706-.158 5.5548.007 1.8487.165 3.705.3727 5.561.2616 1.8562-.111 3.7358-.5633 5.269-1.607 1.3973-.9445 2.4458-2.324 3.2443-3.7983.7986-1.4744 1.3676-3.0555 1.9765-4.6166.6088-1.5611 1.2667-3.1219 2.2218-4.5097.955-1.3879 2.2361-2.6047 3.8057-3.2347" filter="url(#aU)"/><path fill="#f5bd0c" d="M138.7532 281.2353c1.409-.7122 3.0706-.8581 4.6164-.5368 1.5458.3213 2.9783 1.0906 4.1957 2.0958 2.435 2.0104 3.9803 4.8747 5.4194 7.6854 3.305 6.4547 6.3834 13.0498 10.338 19.1282 2.8687 4.4096 6.1796 8.517 9.0815 12.9048 3.9356 5.9507 7.1358 12.4957 8.4564 19.5068.8882 4.7158.859 9.8096-1.3725 14.0578-1.4687 2.7961-3.85 5.09-6.6634 6.5253-2.8133 1.4353-6.0432 2.017-9.1888 1.7344-4.9543-.4451-9.4537-2.9252-14.1175-4.6548-8.2747-3.0688-17.2181-3.8032-25.7344-6.1187-3.592-.9766-7.11-2.2352-10.7509-3.0096-1.6061-.3416-3.2436-.5913-4.7767-1.1794-1.5332-.5882-2.9863-1.5658-3.7697-3.009-.5514-1.0157-.7365-2.2046-.6543-3.3574.0822-1.1528.4208-2.2748.8646-3.342.8876-2.1343 2.2009-4.0893 2.8904-6.2956 1.0132-3.2421.5967-6.7572-.1636-10.0678s-1.8567-6.5612-2.1945-9.9412c-.1505-1.5054-.1468-3.04.1913-4.5146.3382-1.4746 1.027-2.8917 2.1086-3.9495 1.3932-1.3625 3.3437-2.04 5.2831-2.2293 1.9395-.1892 3.8922.069 5.8203.3512 1.9281.2823 3.8683.59 5.8148.4999 1.9466-.0902 3.9285-.6108 5.4532-1.8243 1.5078-1.2001 2.4557-2.9872 2.9994-4.836.5436-1.8489.72-3.782.9426-5.6961.2227-1.9142.5005-3.8462 1.2297-5.63.7293-1.7838 1.961-3.4282 3.6809-4.2975" filter="url(#aV)" transform="matrix(1 0 0 .98205 0 3.959)"/><path fill="url(#aW)" d="M156.4072 295.9694c2.6062 4.7134 4.1958 10.1216 6.7812 14.875 2.3781 4.3722 5.0845 8.8738 7.5 12.9063 1.0755 1.7953 3.5833 4.5546 6.119 8.8373 2.2977 3.8808 4.6182 9.2971 5.9166 11.1158-.7456-2.1288-2.2793-7.8466-4.1088-11.9226-1.7095-3.8088-3.6998-5.9822-4.9268-8.0305-2.4155-4.0325-5.0169-7.6565-7.5-11.5-3.4252-5.3019-6.0356-11.2353-9.7812-16.2813z" filter="url(#aX)"/></g></svg>