<svg xmlns="http://www.w3.org/2000/svg" width="120" height="60" version="1"><g stroke-width=".14"><path fill="#599636" d="M16.15 5.15c.3.58.73 1.5 1.09 2.05.24.38.51.72.82 1.03.92.91 1.78 1.87 2.56 2.9a25.16 25.16 0 0 1 3.99 8.03c.53 1.78.82 3.61.85 5.46a19.22 19.22 0 0 1-7.64 15.92c-.38 0-.56-.29-.72-.56a4.59 4.59 0 0 1-.55-1.6 7.72 7.72 0 0 1-.18-2.03v-.3c-.02-.07-.36-30.74-.22-30.9z"/><path fill="#6cac48" d="M16.15 5.09c-.05-.1-.1-.02-.14.02.03.45-.13.85-.37 1.22-.27.38-.63.67-.98.98a21.3 21.3 0 0 0-4.8 6.1 24.76 24.76 0 0 0-2.75 9.98c-.12 1.27.4 5.75.8 7.04 1.09 3.43 3.05 6.3 5.59 8.8.62.6 1.29 1.15 1.98 1.69.2 0 .22-.18.27-.31.09-.3.15-.58.2-.87.2-1.11.3-2.23.44-3.34 0-.14-.18-31.2-.24-31.31z"/><path fill="#c2bfbf" d="M17.24 41.9c.04-.51.29-.94.56-1.36a1.42 1.42 0 0 1-.63-.58 4.37 4.37 0 0 1-.33-.73c-.31-.94-.38-1.92-.47-2.88v-.29-.29c-.11.1-.13.85-.13.96a22.2 22.2 0 0 1-.4 3c-.07.41-.12.81-.36 1.17 0 .04 0 .09.02.15.4 1.18.51 2.39.58 3.61v.45c0 .53-.02.42.42.6.18.06.38.09.56.22.13 0 .16-.11.16-.2-.03-.25-.07-.5-.07-.74 0-.69-.02-1.35 0-2.04-.02-.36.04-.72.09-1.05z"/><g><path fill="#47474a" d="M34.15 32.59v2.12c0 .08 0 .17.02.25.02.25.18.4.41.47.21.06.44.1.65.13.12.01.16.07.18.2.01.47-.03.53-.5.5a27.6 27.6 0 0 0-3.21 0h-.12c-.33.01-.36-.02-.36-.35l.01-.18c0-.11.07-.16.17-.16.23-.02.43-.08.64-.12.3-.07.46-.25.5-.55.03-.32.03-.65.03-.97.05-1.25.03-2.5.02-3.74 0-.24-.1-.42-.3-.53a4 4 0 0 0-.8-.34c-.09-.03-.17-.04-.24-.08-.2-.1-.21-.28-.02-.4a.69.69 0 0 1 .24-.08 12.7 12.7 0 0 0 2.49-.62c.16-.06.2-.05.22.12.01.11 0 .22-.01.32-.03.18-.03.37-.03.53 0 .07.01.14.08.18.07.05.14 0 .2-.04.29-.22.58-.43.9-.61a4.3 4.3 0 0 1 1.48-.55c.64-.08 1.2.09 1.7.5.2.19.37.4.52.62.14.2.15.21.34.07.53-.4 1.08-.74 1.68-1 .63-.26 1.27-.3 1.92-.07.65.23 1.1.7 1.36 1.32.23.5.32 1.03.32 1.56v3.74c0 .26.12.42.35.53.27.12.56.16.84.21.18.05.18.05.18.23-.03.46-.07.49-.51.46a30.04 30.04 0 0 0-3.37 0c-.22.01-.22.01-.23-.21v-.07c-.02-.38-.02-.38.34-.46l.37-.1c.28-.08.42-.27.43-.54l.04-1.05c0-.9.03-1.83-.03-2.74a2.17 2.17 0 0 0-.15-.7 1.71 1.71 0 0 0-1.86-1.08c-.55.05-1.04.28-1.5.6-.1.07-.17.15-.16.3.13.88.05 1.78.06 2.67v1.94c0 .35.14.52.47.6.21.06.42.1.65.14.1.01.15.06.15.17v.1c-.01.4-.04.43-.43.41a37.97 37.97 0 0 0-3.34 0c-.37.02-.42-.02-.39-.42.02-.22.04-.23.25-.27l.46-.09c.42-.08.56-.24.59-.67.01-.3.04-.63.04-.93.02-.94.04-1.87-.03-2.8a2.38 2.38 0 0 0-.29-1.01 1.48 1.48 0 0 0-1.31-.81c-.6-.04-1.13.18-1.63.46-.35.2-.5.45-.48.85.02.7-.01 1.37 0 2.04-.01 0 0 0 0 0zM60.44 32.67v1.97l.03.42c.03.2.14.33.33.39.24.07.5.1.74.12.14.02.17.07.19.18v.1c-.02.5-.07.55-.55.52a26.9 26.9 0 0 0-3.18 0l-.42.01c-.08 0-.11-.04-.12-.1-.05-.19-.05-.39 0-.58 0-.08.06-.11.15-.13.2-.02.38-.07.57-.1.35-.1.48-.23.49-.6.03-.38.04-.78.04-1.17v-3.43c0-.25-.1-.4-.32-.52a5.03 5.03 0 0 0-.8-.33l-.23-.1c-.18-.12-.2-.3-.03-.44a.5.5 0 0 1 .28-.12c.9-.14 1.76-.33 2.6-.67.1-.04.13-.01.18.07.04.09.05.19.04.28l-.04.66c0 .08-.05.2.02.24.09.05.14-.07.21-.12.42-.33.87-.64 1.36-.86.43-.2.88-.34 1.38-.3.93.05 1.6.52 2.04 1.35.22.43.32.9.36 1.4.03.33.04.67.04 1.02l.01 2.88v.2c.02.24.1.4.34.48.25.09.49.14.75.18.23.03.24.07.25.28v.07c-.02.48-.05.5-.53.46a29.2 29.2 0 0 0-3.12 0c-.14.02-.28 0-.42.02-.09 0-.14-.02-.15-.1-.03-.18-.06-.36-.02-.56.02-.08.06-.12.15-.14.21-.03.44-.05.65-.11.22-.06.35-.2.37-.42.02-.12.03-.26.03-.39l-.01-2.92c0-.33-.02-.67-.09-1a1.63 1.63 0 0 0-1.45-1.3c-.64-.07-1.21.1-1.76.45a.77.77 0 0 0-.37.7v2.1l.01-.04z"/><path fill="#c2bfbf" d="M101.31 28.72a5.45 5.45 0 0 0-3.33-4.31 7.75 7.75 0 0 0-2.76-.5c-.4-.02-5.73.07-6.12 0-.1-.02-.16.01-.22.1-.07.1-.14.2-.18.32-.17.37-.17.35.24.4.33.06.65.08.97.18.3.1.5.27.57.59.03.15.06 5.06.06 7.35 0 .55-.01 1.1-.06 1.64 0 .12-.02.25-.06.36a.58.58 0 0 1-.33.37c-.18.09-.37.14-.58.16-.38.04-.43.05-.56.47l-.04.16c-.03.18-.02.2.17.2.83.02 3.47.05 4.17.05.39-.02 1.02.03 1.63-.03.38-.04.75-.07 1.13-.14a7.03 7.03 0 0 0 3.4-1.62 5.67 5.67 0 0 0 1.95-4.26c.07-.48.04-.99-.05-1.49zM99.3 30.7c-.06.9-.24 1.76-.7 2.54a3.87 3.87 0 0 1-2.58 1.98c-.5.12-1 .16-1.52.09a4.7 4.7 0 0 1-1.09-.21c-.63-.22-.85-.62-.86-1.22-.03-.87 0-7.03-.02-8.41 0-.5.23-.61.59-.63.54-.04 1.1-.03 1.64.03.6.06 1.15.2 1.7.42a4.77 4.77 0 0 1 2.62 3.08c.22.77.26 1.55.22 2.33zM112.91 32.07l-.01-.24a2.67 2.67 0 0 0-1.16-1.8c-.4-.29-.87-.48-1.34-.62-.09-.03-.16-.06-.24-.07.01-.07.06-.09.1-.1.28-.14.54-.3.78-.5a2.56 2.56 0 0 0 .92-2.25 2.4 2.4 0 0 0-1.02-1.81 3.7 3.7 0 0 0-2.17-.69c-1.51-.03-3.03 0-4.54 0-.43 0-.87.03-1.31-.04-.09-.01-.2-.04-.27.06-.1.18-.22.36-.26.57-.02.1.01.15.12.16l.97.14c.37.06.64.27.67.6.02.24.04.46.04.7l-.03 2.61c-.03 1.72-.01 3.45-.01 5.16a5 5 0 0 1-.1.91.51.51 0 0 1-.36.42c-.28.08-.55.17-.84.17-.18 0-.3.07-.36.24-.06.12-.12.26-.13.39-.03.16.01.22.18.2.13-.02 4.73.09 5.6 0a8.25 8.25 0 0 0 1.53-.27 5.28 5.28 0 0 0 2.33-1.37 3 3 0 0 0 .87-2.01c.04-.18.04-.36.04-.56zm-6.77-5.7c.03-.38.03-.75.04-1.12 0-.21.09-.31.3-.35.33-.07.67-.04 1-.03.34.03.66.07 1 .17a2.08 2.08 0 0 1 1.55 1.97c.02.39 0 .76-.16 1.14-.24.52-.62.85-1.16.95-.54.1-2.1.05-2.33.05-.21 0-.22-.02-.22-.23v-1.33c-.03-.39-.05-.8-.02-1.23zm4.54 7.5a2.15 2.15 0 0 1-1.29 1.3c-.33.12-.67.2-1.03.18-.43-.01-.86 0-1.3-.08-.58-.13-.85-.69-.89-1.1-.07-.7-.03-1.43-.04-1.96v-1.84c0-.22.03-.3.26-.3a10.31 10.31 0 0 1 2.2.13 3 3 0 0 1 1.65.87c.37.39.56.86.6 1.38.05.49.02.96-.16 1.42z"/><path fill="#47474a" d="M75.22 29.66l.36.05c.4.02.85-.12 1-.67a1.4 1.4 0 0 0 0-.8c-.1 0-.13.08-.17.1-.21.17-.45.27-.7.3-.5.05-1 .03-1.5-.16-.22-.08-.44-.16-.68-.23a4.08 4.08 0 0 0-1.48-.2c-.71.06-1.38.3-2 .63-.68.36-1.15.9-1.38 1.65-.12.43-.14.88-.08 1.32a2.47 2.47 0 0 0 1.62 2.1l.15.07c.13.06.14.13.03.23-.11.09-.22.17-.35.24-.28.17-.56.33-.84.52-.2.12-.23.22-.16.44.08.27.23.5.44.67.2.17.4.3.65.4.15.06.15.1.01.22l-.8.57c-.26.2-.53.42-.75.67-.32.36-.43.78-.33 1.25.1.5.34.91.72 1.26.36.33.8.57 1.29.7.78.22 1.59.23 2.38.08a5.19 5.19 0 0 0 2.93-1.58c.55-.57.87-1.24.9-2.05.04-.97-.56-1.8-1.51-2.03-.25-.06-.5-.1-.76-.14-.76-.1-1.53-.14-2.3-.2-.25-.01-.5-.05-.71-.18-.27-.17-.33-.49-.17-.7a.66.66 0 0 1 .48-.26l.44-.05c.91-.1 1.7-.46 2.36-1.07.35-.32.59-.73.71-1.19.17-.6.17-1.21.03-1.82-.04-.16-.03-.17.17-.14zM71.8 36.6h.25c.59.02 1.19.07 1.76.22.2.06.36.12.54.2.56.32.77.85.7 1.42a1.76 1.76 0 0 1-.98 1.37c-.36.2-.76.29-1.18.33h-.45c-.49.01-.96-.04-1.42-.24-.32-.12-.59-.3-.82-.55-.5-.5-.73-1.39 0-2.11.46-.42.96-.7 1.6-.64zm1.6-4.36c-.3.74-.94.97-1.59.87a1.68 1.68 0 0 1-1.3-.94 3 3 0 0 1-.24-2.22c.15-.57.5-1 1.11-1.1.78-.14 1.52.14 1.93.92a3.15 3.15 0 0 1 .08 2.47zM55.8 31.3a3.72 3.72 0 0 0-3.77-3.24 4.9 4.9 0 0 0-2.67.77c-.8.5-1.37 1.22-1.63 2.14-.24.8-.22 1.63-.04 2.45.49 2.2 2.19 3.16 4.23 3.02.6-.04 1.17-.24 1.71-.5.81-.38 1.4-.98 1.8-1.78.32-.65.46-1.35.45-2.14-.02-.2-.03-.47-.07-.72zm-1.97 3.1a1.7 1.7 0 0 1-1.44 1.17 2.34 2.34 0 0 1-1.7-.43 2.9 2.9 0 0 1-.88-1.05 5.34 5.34 0 0 1-.38-3.65c.1-.4.3-.74.59-1.02a1.9 1.9 0 0 1 1.78-.45A2.5 2.5 0 0 1 53.32 30c.4.53.6 1.15.7 1.79.06.32.06.65.07.86a4.7 4.7 0 0 1-.26 1.76zM86.3 31.42a3.72 3.72 0 0 0-3.8-3.35c-.93-.02-1.8.25-2.6.7-.89.54-1.5 1.3-1.74 2.31a4.87 4.87 0 0 0 .34 3.32 3.4 3.4 0 0 0 2.27 1.89c1.15.3 2.24.16 3.3-.35a3.83 3.83 0 0 0 1.95-2.1c.22-.56.3-1.16.32-1.85.01-.13-.01-.35-.04-.57zm-1.93 2.8c-.22.75-.7 1.24-1.49 1.35a2.32 2.32 0 0 1-1.65-.39c-.43-.29-.74-.68-.96-1.14a5.42 5.42 0 0 1-.38-3.49c.03-.13.07-.25.13-.38a1.88 1.88 0 0 1 2.27-1.2c.69.16 1.2.53 1.6 1.1.37.56.55 1.18.64 1.83.04.27.05.55.04.78 0 .55-.04 1.05-.2 1.54z"/></g></g></svg>