<svg xmlns="http://www.w3.org/2000/svg" viewBox="0 0 96 93.6"><defs><style>.cls-1{fill:#00c8ff}</style></defs><g id="Layer_2" data-name="Layer 2"><g id="Layer_1-2" data-name="Layer 1"><path d="M0 0h96v93.6H0z" class="cls-1"/><path fill="#001d26" d="M4.8 4.8h86.4v84H4.8z"/><path d="M23.68 22.72c0-.32.64-.48 1-.48 2.56-.16 6.4-.16 10.24-.16 11 0 15.36 6.08 15.36 13.92 0 10.24-7.36 14.56-16.48 14.56h-3v15.36a.42.42 0 0 1-.48.48H24a.42.42 0 0 1-.48-.48zm7 21.28h3.2c4.68 0 9.12-1.6 9.12-8 0-5.12-3.2-7.68-8.48-7.68a24.92 24.92 0 0 0-3.84.16zm34.4-4.8c-3.2 0-4.16 1.6-4.16 2.88s.8 2.4 5 4.64c6.24 3 8.32 5.92 8.32 10.24 0 6.4-4.8 9.92-11.52 9.92a17 17 0 0 1-8.32-1.76c-.32-.16-.32-.32-.32-.64v-5.92c0-.32.16-.48.48-.32a14.23 14.23 0 0 0 8 2.4c3.2 0 4.48-1.28 4.48-3 0-1.44-1-2.72-5-4.8-5.6-2.72-8-5.44-8-10.08 0-5.12 4-9.44 11-9.44a18.83 18.83 0 0 1 7.2 1.12.58.58 0 0 1 .32.8v5.44c0 .32-.16.48-.64.32a14.66 14.66 0 0 0-6.8-1.8z" class="cls-1"/></g></g></svg>