<svg xmlns="http://www.w3.org/2000/svg" width="50" height="50" fill-rule="evenodd" version="1" viewBox="0 0 5.55556 5.55556"><path fill="#464342" d="M2.77761.38914c.62306 0 1.19036.23876 1.61562.62967-.20844-.0056-.41644.1183-.42504.40202-.01753.57357.68585.69574.30684 1.84943l-.3135.9543-.85385-2.51517c-.01323-.03893.00215-.06109.05001-.06109h.2414c.01254 0 .0228-.01071.0228-.02383V1.4815c0-.0131-.01028-.02436-.0228-.02382-.45714.01999-.9116.02012-1.3633 0-.01259-.00054-.0228.01075-.0228.02387v.14298c0 .0131.01025.02383.0228.02383h.24271c.054 0 .06911.018.08184.0528l.35083.95945-.52775 1.59357-.8675-2.55518c-.01075-.03205.00226-.05065.03313-.05065h.27656c.01254 0 .0228-.01071.0228-.02383v-.14298c0-.01311-.0103-.02448-.0228-.02382-.29017.0154-.58144.0185-.85277.0213C1.19862.82311 1.93739.38908 2.77746.38908zm2.10067 1.25113c.18353.33815.28775.72557.28775 1.13723 0 .90348-.502 1.68983-1.2421 2.09572l.7449-2.1098c.1154-.32653.22251-.7678.2094-1.12315h-.00001zM3.57724 5.02852c-.25005.08895-.51914.13745-.79963.13745-.24166 0-.47483-.03603-.69466-.1027l.7358-2.10863.75848 2.074zm-1.82168-.09184C.94786 4.5536.38914 3.73072.38914 2.7776c0-.35332.07686-.68873.21462-.9905l1.15186 3.1496zM2.77754.165c1.44256 0 2.6125 1.16993 2.6125 2.6125S4.2201 5.39 2.77753 5.39.16504 4.22007.16504 2.7775 1.33497.165 2.77754.165zm0-.16513c1.53377 0 2.77769 1.24393 2.77769 2.7777S4.3113 5.55526 2.77753 5.55526-.00015 4.31134-.00015 2.77756 1.24376-.00012 2.77754-.00012z"/></svg>